<svg xmlns="http://www.w3.org/2000/svg" viewBox="0 0 157.93 157.93"><defs><style>.cls-1{fill:#ffe89b;}.cls-1,.cls-2,.cls-3,.cls-5{stroke:#151515;}.cls-1,.cls-2,.cls-3,.cls-4,.cls-5{stroke-miterlimit:10;}.cls-2{fill:#c9ceff;}.cls-3{fill:#59577c;}.cls-4{fill:none;stroke:#c2feff;}.cls-5{fill:#c2feff;}</style></defs><title>aspecto1</title><g id="Layer_2" data-name="Layer 2"><g id="Layer_3" data-name="Layer 3"><path class="cls-1" d="M108,64.89A29.09,29.09,0,1,0,62.74,89.07,7.44,7.44,0,0,1,66,95.26v4.62H91.8V95.26a7.44,7.44,0,0,1,3.28-6.18A29.05,29.05,0,0,0,108,64.89Z"/><path class="cls-2" d="M79,.5A78.46,78.46,0,1,0,157.43,79,78.46,78.46,0,0,0,79,.5Zm0,147.3A68.83,68.83,0,1,1,147.8,79,68.83,68.83,0,0,1,79,147.8Z"/><path class="cls-3" d="M66,103.51H91.8a0,0,0,0,1,0,0v3.61a2.54,2.54,0,0,1-2.54,2.54H68.57A2.54,2.54,0,0,1,66,107.12v-3.61A0,0,0,0,1,66,103.51Z"/><path class="cls-3" d="M67.47,111.92H90.35a0,0,0,0,1,0,0v3.76A2.39,2.39,0,0,1,88,118.07H69.86a2.39,2.39,0,0,1-2.39-2.39v-3.76a0,0,0,0,1,0,0Z"/><path class="cls-3" d="M71.42,120.33h15a0,0,0,0,1,0,0v4.21a1.93,1.93,0,0,1-1.93,1.93H73.36a1.93,1.93,0,0,1-1.93-1.93v-4.21A0,0,0,0,1,71.42,120.33Z"/><polyline class="cls-4" points="84.6 67.31 90.49 55.52 93.67 79.55 97.84 58.71 99.8 67.81 105.04 65.16"/><path class="cls-4" d="M70.63,66.74c.3.16-3.28,11.58-3.28,11.58L63.51,56.74,60.08,76.12,56.4,65.33l-3.47,2.48"/><polygon class="cls-5" points="79.78 38.9 64.09 63.72 81.72 72.95 76.4 95.67 93.85 65.8 76.22 58.26 79.78 38.9"/></g></g></svg>