<svg xmlns="http://www.w3.org/2000/svg" viewBox="0 0 157.93 157.93"><defs><style>.cls-1{fill:#cf9e76;}.cls-1,.cls-2,.cls-3,.cls-4,.cls-5{stroke:#151515;stroke-miterlimit:10;}.cls-2{fill:#cea28b;}.cls-3{fill:#f0beb4;}.cls-4{fill:#9798ad;}.cls-5{fill:#a6abe7;}</style></defs><title>aspecto3</title><g id="Layer_2" data-name="Layer 2"><g id="Layer_3" data-name="Layer 3"><path class="cls-1" d="M92.29,80.05h11.24a0,0,0,0,1,0,0v15.2a3,3,0,0,1-3,3H92.29a0,0,0,0,1,0,0V80.05A0,0,0,0,1,92.29,80.05Z"/><path class="cls-1" d="M90.12,72.19H106a0,0,0,0,1,0,0v8.46a5.12,5.12,0,0,1-5.12,5.12H90.12a0,0,0,0,1,0,0V72.19A0,0,0,0,1,90.12,72.19Z"/><path class="cls-2" d="M53.86,80.05H65.1a0,0,0,0,1,0,0v15.2a3,3,0,0,1-3,3H53.86a0,0,0,0,1,0,0V80.05A0,0,0,0,1,53.86,80.05Z"/><path class="cls-2" d="M51.7,72.19H67.62a0,0,0,0,1,0,0v8.46a5.12,5.12,0,0,1-5.12,5.12H51.7a0,0,0,0,1,0,0V72.19A0,0,0,0,1,51.7,72.19Z"/><path class="cls-3" d="M73.09,80.05H84.33a0,0,0,0,1,0,0v15.2a3,3,0,0,1-3,3H73.09a0,0,0,0,1,0,0V80.05A0,0,0,0,1,73.09,80.05Z"/><path class="cls-3" d="M70.92,72.19H86.84a0,0,0,0,1,0,0v8.46a5.12,5.12,0,0,1-5.12,5.12H70.92a0,0,0,0,1,0,0V72.19A0,0,0,0,1,70.92,72.19Z"/><path class="cls-4" d="M118,59.36h4.34a1.88,1.88,0,0,1,1.88,1.88V96.69a1.88,1.88,0,0,1-1.88,1.88H118a0,0,0,0,1,0,0V59.36a0,0,0,0,1,0,0Z"/><path class="cls-4" d="M124.2,64.08h4.58a1.64,1.64,0,0,1,1.64,1.64v26.5a1.64,1.64,0,0,1-1.64,1.64H124.2a0,0,0,0,1,0,0V64.08A0,0,0,0,1,124.2,64.08Z"/><path class="cls-4" d="M130.42,68.45h4.84a1.38,1.38,0,0,1,1.38,1.38V88.1a1.38,1.38,0,0,1-1.38,1.38h-4.84a0,0,0,0,1,0,0v-21A0,0,0,0,1,130.42,68.45Z"/><path class="cls-4" d="M33.73,59.36h4.34a1.88,1.88,0,0,1,1.88,1.88V96.69a1.88,1.88,0,0,1-1.88,1.88H33.73a0,0,0,0,1,0,0V59.36A0,0,0,0,1,33.73,59.36Z" transform="translate(73.68 157.93) rotate(180)"/><path class="cls-4" d="M27.51,64.08h4.58a1.64,1.64,0,0,1,1.64,1.64v26.5a1.64,1.64,0,0,1-1.64,1.64H27.51a0,0,0,0,1,0,0V64.08A0,0,0,0,1,27.51,64.08Z" transform="translate(61.24 157.93) rotate(180)"/><path class="cls-4" d="M21.3,68.45h4.84a1.38,1.38,0,0,1,1.38,1.38V88.1a1.38,1.38,0,0,1-1.38,1.38H21.3a0,0,0,0,1,0,0v-21A0,0,0,0,1,21.3,68.45Z" transform="translate(48.81 157.93) rotate(180)"/><rect class="cls-5" x="40.02" y="77.19" width="77.96" height="3.55"/><path class="cls-3" d="M75,72.19h4a0,0,0,0,1,0,0v6.86a2.08,2.08,0,0,1-2.08,2.08H75a0,0,0,0,1,0,0V72.19A0,0,0,0,1,75,72.19Z"/><path class="cls-3" d="M71,72.19h4a0,0,0,0,1,0,0v5.92A1.95,1.95,0,0,1,73,80.05H71a0,0,0,0,1,0,0V72.19A0,0,0,0,1,71,72.19Z"/><path class="cls-3" d="M75.68,76H77a0,0,0,0,1,0,0v8.15a0,0,0,0,1,0,0H73a0,0,0,0,1,0,0V78.65A2.67,2.67,0,0,1,75.68,76Z" transform="translate(155.05 5.06) rotate(90)"/><path class="cls-3" d="M79,72.19h4a0,0,0,0,1,0,0v5.46a1.88,1.88,0,0,1-1.88,1.88H79a0,0,0,0,1,0,0V72.19A0,0,0,0,1,79,72.19Z"/><path class="cls-3" d="M82.94,72.19h4a0,0,0,0,1,0,0v4.09a1.67,1.67,0,0,1-1.67,1.67H82.94a0,0,0,0,1,0,0V72.19A0,0,0,0,1,82.94,72.19Z"/><path class="cls-1" d="M94.2,72.19h4a0,0,0,0,1,0,0v6.86a2.08,2.08,0,0,1-2.08,2.08H94.2a0,0,0,0,1,0,0V72.19A0,0,0,0,1,94.2,72.19Z"/><path class="cls-1" d="M90.23,72.19h4a0,0,0,0,1,0,0v5.92a1.95,1.95,0,0,1-1.95,1.95h-2a0,0,0,0,1,0,0V72.19A0,0,0,0,1,90.23,72.19Z"/><path class="cls-1" d="M94.88,76h1.3a0,0,0,0,1,0,0v8.15a0,0,0,0,1,0,0h-4a0,0,0,0,1,0,0V78.65A2.67,2.67,0,0,1,94.88,76Z" transform="translate(174.25 -14.14) rotate(90)"/><path class="cls-1" d="M98.17,72.19h4a0,0,0,0,1,0,0v5.46a1.88,1.88,0,0,1-1.88,1.88H98.17a0,0,0,0,1,0,0V72.19A0,0,0,0,1,98.17,72.19Z"/><path class="cls-1" d="M102.14,72.19h4a0,0,0,0,1,0,0v4.09a1.67,1.67,0,0,1-1.67,1.67h-2.31a0,0,0,0,1,0,0V72.19A0,0,0,0,1,102.14,72.19Z"/><path class="cls-2" d="M55.77,72.19h4a0,0,0,0,1,0,0v6.86a2.08,2.08,0,0,1-2.08,2.08h-1.9a0,0,0,0,1,0,0V72.19A0,0,0,0,1,55.77,72.19Z"/><path class="cls-2" d="M51.8,72.19h4a0,0,0,0,1,0,0v5.92a1.95,1.95,0,0,1-1.95,1.95h-2a0,0,0,0,1,0,0V72.19A0,0,0,0,1,51.8,72.19Z"/><path class="cls-2" d="M56.46,76h1.3a0,0,0,0,1,0,0v8.15a0,0,0,0,1,0,0h-4a0,0,0,0,1,0,0V78.65A2.67,2.67,0,0,1,56.46,76Z" transform="translate(135.82 24.28) rotate(90)"/><path class="cls-2" d="M59.74,72.19h4a0,0,0,0,1,0,0v5.46a1.88,1.88,0,0,1-1.88,1.88H59.74a0,0,0,0,1,0,0V72.19A0,0,0,0,1,59.74,72.19Z"/><path class="cls-2" d="M63.71,72.19h4a0,0,0,0,1,0,0v4.09A1.67,1.67,0,0,1,66,77.95H63.71a0,0,0,0,1,0,0V72.19A0,0,0,0,1,63.71,72.19Z"/><path class="cls-4" d="M79,.5A78.46,78.46,0,1,0,157.43,79,78.46,78.46,0,0,0,79,.5Zm0,147.3A68.83,68.83,0,1,1,147.8,79,68.83,68.83,0,0,1,79,147.8Z"/></g></g></svg>