<svg xmlns="http://www.w3.org/2000/svg" viewBox="0 0 262.06 228.41"><defs><style>.cls-1{fill:#cbd4ef;}.cls-2{fill:none;stroke:#000a8b;stroke-miterlimit:10;}</style></defs><title>bg_seccion_2</title><g id="Layer_2" data-name="Layer 2"><g id="Layer_2-2" data-name="Layer 2"><polygon class="cls-1" points="164.99 11.55 147.81 28.73 181.36 28.73 164.99 11.55"/><rect class="cls-1" x="137.98" y="189.13" width="14.73" height="23.73"/><rect class="cls-1" x="137.98" y="28.73" width="54.01" height="160.4"/><rect class="cls-1" x="0.5" y="195.68" width="110.48" height="32.73"/><polyline class="cls-2" points="38.55 195.68 38.55 146.17 45.92 146.17 45.92 139.62 52.47 139.62 52.47 146.17 61.47 146.17 61.47 139.62 75.38 131.44 90.11 138.8 90.11 147.81 97.48 147.81 97.48 139.62 104.02 139.62 104.02 147.81 111.39 147.81"/><rect class="cls-2" x="111.39" y="44.69" width="27.01" height="167.76"/><polyline class="cls-2" points="111.39 44.69 111.39 11.96 131.85 11.96 131.85 0.5 195.68 0.5 195.68 13.59 261.15 13.59"/><polyline class="cls-2" points="138.39 44.69 138.39 28.32 147.4 28.32 164.58 11.14 181.36 27.91 191.59 27.91 191.59 188.72"/><line class="cls-2" x1="111.39" y1="226.37" x2="111.39" y2="212.46"/><polyline class="cls-2" points="138.39 212.46 152.31 212.46 152.31 188.72 206.32 188.72 206.32 212.46 233.32 212.46 233.32 228"/><line class="cls-2" x1="68.01" y1="142.08" x2="81.93" y2="142.08"/><line class="cls-2" x1="68.42" y1="146.17" x2="82.34" y2="146.17"/><line class="cls-2" x1="68.42" y1="155.99" x2="82.34" y2="155.99"/><line class="cls-2" x1="68.42" y1="160.08" x2="82.34" y2="160.08"/><line class="cls-2" x1="68.42" y1="164.17" x2="82.34" y2="164.17"/><line class="cls-2" x1="68.42" y1="168.26" x2="82.34" y2="168.26"/><line class="cls-2" x1="89.7" y1="155.99" x2="103.61" y2="155.99"/><line class="cls-2" x1="89.7" y1="160.08" x2="103.61" y2="160.08"/><line class="cls-2" x1="89.7" y1="164.17" x2="103.61" y2="164.17"/><line class="cls-2" x1="89.7" y1="168.26" x2="103.61" y2="168.26"/><line class="cls-2" x1="46.33" y1="155.17" x2="60.24" y2="155.17"/><line class="cls-2" x1="46.33" y1="159.26" x2="60.24" y2="159.26"/><line class="cls-2" x1="46.33" y1="163.35" x2="60.24" y2="163.35"/><line class="cls-2" x1="46.33" y1="167.45" x2="60.24" y2="167.45"/><line class="cls-2" x1="68.42" y1="178.08" x2="82.34" y2="178.08"/><line class="cls-2" x1="68.42" y1="182.18" x2="82.34" y2="182.18"/><line class="cls-2" x1="68.42" y1="186.27" x2="82.34" y2="186.27"/><line class="cls-2" x1="68.42" y1="190.36" x2="82.34" y2="190.36"/><line class="cls-2" x1="89.7" y1="178.08" x2="103.61" y2="178.08"/><line class="cls-2" x1="89.7" y1="182.18" x2="103.61" y2="182.18"/><line class="cls-2" x1="89.7" y1="186.27" x2="103.61" y2="186.27"/><line class="cls-2" x1="89.7" y1="190.36" x2="103.61" y2="190.36"/><line class="cls-2" x1="46.33" y1="177.27" x2="60.24" y2="177.27"/><line class="cls-2" x1="46.33" y1="181.36" x2="60.24" y2="181.36"/><line class="cls-2" x1="46.33" y1="185.45" x2="60.24" y2="185.45"/><line class="cls-2" x1="46.33" y1="189.54" x2="60.24" y2="189.54"/><line class="cls-2" x1="0.91" y1="195.27" x2="111.39" y2="195.27"/><line class="cls-2" x1="5" y1="201" x2="105.66" y2="201"/><rect class="cls-2" x="62.29" y="210" width="38.46" height="7.37"/><rect class="cls-2" x="12.37" y="210" width="37.64" height="8.18"/><rect class="cls-2" x="142.49" y="46.33" width="12.28" height="20.46"/><rect class="cls-2" x="158.03" y="46.33" width="12.28" height="20.46"/><rect class="cls-2" x="174.4" y="46.33" width="12.28" height="20.46"/><line class="cls-2" x1="142.28" y1="39.78" x2="154.56" y2="39.78"/><line class="cls-2" x1="142.28" y1="43.05" x2="154.56" y2="43.05"/><line class="cls-2" x1="158.44" y1="39.78" x2="170.72" y2="39.78"/><line class="cls-2" x1="158.44" y1="43.05" x2="170.72" y2="43.05"/><line class="cls-2" x1="173.99" y1="39.78" x2="186.27" y2="39.78"/><line class="cls-2" x1="173.99" y1="43.05" x2="186.27" y2="43.05"/><rect class="cls-2" x="140.85" y="72.52" width="5.73" height="6.55"/><rect class="cls-2" x="149.03" y="72.52" width="5.73" height="6.55"/><rect class="cls-2" x="157.22" y="72.52" width="5.73" height="6.55"/><rect class="cls-2" x="165.4" y="72.52" width="5.73" height="6.55"/><rect class="cls-2" x="173.58" y="72.52" width="5.73" height="6.55"/><rect class="cls-2" x="181.77" y="72.52" width="5.73" height="6.55"/><rect class="cls-2" x="140.85" y="83.97" width="5.73" height="6.55"/><rect class="cls-2" x="149.03" y="83.97" width="5.73" height="6.55"/><rect class="cls-2" x="157.22" y="83.97" width="5.73" height="6.55"/><rect class="cls-2" x="165.4" y="83.97" width="5.73" height="6.55"/><rect class="cls-2" x="173.58" y="83.97" width="5.73" height="6.55"/><rect class="cls-2" x="181.77" y="83.97" width="5.73" height="6.55"/><rect class="cls-2" x="140.85" y="95.43" width="5.73" height="6.55"/><rect class="cls-2" x="149.03" y="95.43" width="5.73" height="6.55"/><rect class="cls-2" x="157.22" y="95.43" width="5.73" height="6.55"/><rect class="cls-2" x="165.4" y="95.43" width="5.73" height="6.55"/><rect class="cls-2" x="173.58" y="95.43" width="5.73" height="6.55"/><rect class="cls-2" x="181.77" y="95.43" width="5.73" height="6.55"/><rect class="cls-2" x="140.85" y="106.89" width="5.73" height="6.55"/><rect class="cls-2" x="149.03" y="106.89" width="5.73" height="6.55"/><rect class="cls-2" x="157.22" y="106.89" width="5.73" height="6.55"/><rect class="cls-2" x="165.4" y="106.89" width="5.73" height="6.55"/><rect class="cls-2" x="173.58" y="106.89" width="5.73" height="6.55"/><rect class="cls-2" x="181.77" y="106.89" width="5.73" height="6.55"/><rect class="cls-2" x="140.85" y="118.34" width="5.73" height="6.55"/><rect class="cls-2" x="149.03" y="118.34" width="5.73" height="6.55"/><rect class="cls-2" x="157.22" y="118.34" width="5.73" height="6.55"/><rect class="cls-2" x="165.4" y="118.34" width="5.73" height="6.55"/><rect class="cls-2" x="173.58" y="118.34" width="5.73" height="6.55"/><rect class="cls-2" x="181.77" y="118.34" width="5.73" height="6.55"/><rect class="cls-2" x="140.85" y="129.8" width="5.73" height="6.55"/><rect class="cls-2" x="149.03" y="129.8" width="5.73" height="6.55"/><rect class="cls-2" x="157.22" y="129.8" width="5.73" height="6.55"/><rect class="cls-2" x="165.4" y="129.8" width="5.73" height="6.55"/><rect class="cls-2" x="173.58" y="129.8" width="5.73" height="6.55"/><rect class="cls-2" x="181.77" y="129.8" width="5.73" height="6.55"/><rect class="cls-2" x="140.85" y="141.26" width="5.73" height="6.55"/><rect class="cls-2" x="149.03" y="141.26" width="5.73" height="6.55"/><rect class="cls-2" x="157.22" y="141.26" width="5.73" height="6.55"/><rect class="cls-2" x="165.4" y="141.26" width="5.73" height="6.55"/><rect class="cls-2" x="173.58" y="141.26" width="5.73" height="6.55"/><rect class="cls-2" x="181.77" y="141.26" width="5.73" height="6.55"/><rect class="cls-2" x="140.85" y="152.71" width="5.73" height="6.55"/><rect class="cls-2" x="149.03" y="152.71" width="5.73" height="6.55"/><rect class="cls-2" x="157.22" y="152.71" width="5.73" height="6.55"/><rect class="cls-2" x="165.4" y="152.71" width="5.73" height="6.55"/><rect class="cls-2" x="173.58" y="152.71" width="5.73" height="6.55"/><rect class="cls-2" x="181.77" y="152.71" width="5.73" height="6.55"/><rect class="cls-2" x="140.85" y="164.17" width="5.73" height="6.55"/><rect class="cls-2" x="149.03" y="164.17" width="5.73" height="6.55"/><rect class="cls-2" x="157.22" y="164.17" width="5.73" height="6.55"/><rect class="cls-2" x="165.4" y="164.17" width="5.73" height="6.55"/><rect class="cls-2" x="173.58" y="164.17" width="5.73" height="6.55"/><rect class="cls-2" x="181.77" y="164.17" width="5.73" height="6.55"/><rect class="cls-2" x="140.85" y="175.63" width="5.73" height="6.55"/><rect class="cls-2" x="140.85" y="185.45" width="5.73" height="6.55"/><rect class="cls-2" x="140.85" y="195.27" width="5.73" height="6.55"/><rect class="cls-2" x="149.03" y="175.63" width="5.73" height="6.55"/><rect class="cls-2" x="157.22" y="175.63" width="5.73" height="6.55"/><rect class="cls-2" x="165.4" y="175.63" width="5.73" height="6.55"/><rect class="cls-2" x="173.58" y="175.63" width="5.73" height="6.55"/><rect class="cls-2" x="181.77" y="175.63" width="5.73" height="6.55"/><line class="cls-2" x1="131.85" y1="16.05" x2="113.02" y2="16.05"/><line class="cls-2" x1="131.85" y1="19.32" x2="113.02" y2="19.32"/><line class="cls-2" x1="131.85" y1="22.6" x2="113.02" y2="22.6"/><line class="cls-2" x1="131.85" y1="25.87" x2="113.02" y2="25.87"/><line class="cls-2" x1="261.56" y1="16.05" x2="196.09" y2="16.05"/><line class="cls-2" x1="261.56" y1="19.32" x2="196.09" y2="19.32"/><line class="cls-2" x1="261.56" y1="22.59" x2="196.09" y2="22.59"/><line class="cls-2" x1="261.56" y1="25.87" x2="196.09" y2="25.87"/><line class="cls-2" x1="194.86" y1="44.69" x2="261.15" y2="44.69"/><line class="cls-2" x1="207.95" y1="39.78" x2="221.05" y2="39.78"/><line class="cls-2" x1="223.91" y1="39.78" x2="237.01" y2="39.78"/><line class="cls-2" x1="239.46" y1="39.78" x2="252.55" y2="39.78"/><line class="cls-2" x1="199.36" y1="53.69" x2="223.91" y2="53.69"/><line class="cls-2" x1="199.36" y1="65.15" x2="223.91" y2="65.15"/><line class="cls-2" x1="199.36" y1="76.61" x2="223.91" y2="76.61"/><line class="cls-2" x1="199.36" y1="88.06" x2="223.91" y2="88.06"/><line class="cls-2" x1="199.36" y1="99.52" x2="223.91" y2="99.52"/><line class="cls-2" x1="199.36" y1="110.98" x2="223.91" y2="110.98"/><line class="cls-2" x1="199.36" y1="122.44" x2="223.91" y2="122.44"/><line class="cls-2" x1="199.36" y1="133.89" x2="223.91" y2="133.89"/><line class="cls-2" x1="199.36" y1="145.35" x2="223.91" y2="145.35"/><line class="cls-2" x1="199.36" y1="156.81" x2="223.91" y2="156.81"/><line class="cls-2" x1="199.36" y1="168.26" x2="223.91" y2="168.26"/><line class="cls-2" x1="199.36" y1="179.72" x2="223.91" y2="179.72"/><line class="cls-2" x1="211.64" y1="191.18" x2="223.91" y2="191.18"/><line class="cls-2" x1="211.64" y1="202.63" x2="223.91" y2="202.63"/><line class="cls-2" x1="230.46" y1="53.69" x2="255.01" y2="53.69"/><line class="cls-2" x1="230.46" y1="65.15" x2="255.01" y2="65.15"/><line class="cls-2" x1="230.46" y1="76.61" x2="255.01" y2="76.61"/><line class="cls-2" x1="230.46" y1="88.06" x2="255.01" y2="88.06"/><line class="cls-2" x1="230.46" y1="99.52" x2="255.01" y2="99.52"/><line class="cls-2" x1="230.46" y1="110.98" x2="255.01" y2="110.98"/><line class="cls-2" x1="230.46" y1="122.44" x2="255.01" y2="122.44"/><line class="cls-2" x1="230.46" y1="133.89" x2="255.01" y2="133.89"/><line class="cls-2" x1="230.46" y1="145.35" x2="255.01" y2="145.35"/><line class="cls-2" x1="230.46" y1="156.81" x2="255.01" y2="156.81"/><line class="cls-2" x1="230.46" y1="168.26" x2="255.01" y2="168.26"/><line class="cls-2" x1="230.46" y1="179.72" x2="255.01" y2="179.72"/><line class="cls-2" x1="230.46" y1="191.18" x2="255.01" y2="191.18"/><line class="cls-2" x1="230.46" y1="202.63" x2="255.01" y2="202.63"/><line class="cls-2" x1="242.73" y1="211.64" x2="255.01" y2="211.64"/><line class="cls-2" x1="242.73" y1="223.09" x2="255.01" y2="223.09"/><line class="cls-2" x1="176.04" y1="194.86" x2="176.04" y2="228.41"/><line class="cls-2" x1="180.68" y1="194.86" x2="180.68" y2="228.41"/><line class="cls-2" x1="185.31" y1="194.86" x2="185.31" y2="228.41"/><line class="cls-2" x1="189.95" y1="194.86" x2="189.95" y2="228.41"/><line class="cls-2" x1="216.96" y1="218.59" x2="216.96" y2="225.14"/><line class="cls-2" x1="221.59" y1="218.59" x2="221.59" y2="225.14"/><line class="cls-2" x1="226.23" y1="218.59" x2="226.23" y2="225.14"/><line class="cls-2" x1="230.87" y1="218.59" x2="230.87" y2="225.14"/><line class="cls-2" x1="261.56" y1="16.05" x2="261.56" y2="228"/><line class="cls-2" x1="0.5" y1="195.68" x2="0.5" y2="228.41"/></g></g></svg>