<svg xmlns="http://www.w3.org/2000/svg" viewBox="0 0 255.83 424.75"><defs><style>.cls-1{fill:#cbd4ef;}.cls-2{fill:none;stroke:#000a8b;stroke-miterlimit:10;}</style></defs><title>bg_secciones_1</title><g id="Layer_2" data-name="Layer 2"><g id="Layer_2-2" data-name="Layer 2"><path class="cls-1" d="M6.72,358.61V118.25h6v-23h8V73.75L29.95,62.5h7.28V3A2.5,2.5,0,0,1,39.72.5h0A2.5,2.5,0,0,1,42.22,3V62.5H49.5l9.22,11.25v21.5h8v23h6V323.6c-5.66,0-13.27,7.13-13.27,9.8A15.18,15.18,0,0,0,49,329.24c-4.39,0-8.83,2.54-8.83,4.63a27.29,27.29,0,0,0-2.85.08l-.1-2.19H32.07v1.82H27.61V337H15.32v2.5h2.94v9.3H9.17v9.82Z"/><rect class="cls-2" x="50.24" y="97.25" width="6" height="21"/><rect class="cls-2" x="36.74" y="97.25" width="6" height="21"/><rect class="cls-2" x="23.24" y="97.25" width="6" height="21"/><rect class="cls-2" x="18.95" y="308.03" width="5.73" height="6.55"/><rect class="cls-2" x="10.13" y="308.03" width="5.73" height="6.55"/><rect class="cls-2" x="27.77" y="308.03" width="5.73" height="6.55"/><rect class="cls-2" x="36.59" y="308.03" width="5.73" height="6.55"/><rect class="cls-2" x="45.41" y="308.03" width="5.73" height="6.55"/><rect class="cls-2" x="54.23" y="308.03" width="5.73" height="6.55"/><rect class="cls-2" x="63.05" y="308.03" width="5.73" height="6.55"/><rect class="cls-2" x="18.95" y="285.03" width="5.73" height="6.55"/><rect class="cls-2" x="10.13" y="285.03" width="5.73" height="6.55"/><rect class="cls-2" x="27.77" y="285.03" width="5.73" height="6.55"/><rect class="cls-2" x="36.59" y="285.03" width="5.73" height="6.55"/><rect class="cls-2" x="45.41" y="285.03" width="5.73" height="6.55"/><rect class="cls-2" x="54.23" y="285.03" width="5.73" height="6.55"/><rect class="cls-2" x="63.05" y="285.03" width="5.73" height="6.55"/><rect class="cls-2" x="18.95" y="262.03" width="5.73" height="6.55"/><rect class="cls-2" x="10.13" y="262.03" width="5.73" height="6.55"/><rect class="cls-2" x="27.77" y="262.03" width="5.73" height="6.55"/><rect class="cls-2" x="36.59" y="262.03" width="5.73" height="6.55"/><rect class="cls-2" x="45.41" y="262.03" width="5.73" height="6.55"/><rect class="cls-2" x="54.23" y="262.03" width="5.73" height="6.55"/><rect class="cls-2" x="63.05" y="262.03" width="5.73" height="6.55"/><rect class="cls-2" x="18.95" y="239.03" width="5.73" height="6.55"/><rect class="cls-2" x="10.13" y="239.03" width="5.73" height="6.55"/><rect class="cls-2" x="27.77" y="239.03" width="5.73" height="6.55"/><rect class="cls-2" x="36.59" y="239.03" width="5.73" height="6.55"/><rect class="cls-2" x="45.41" y="239.03" width="5.73" height="6.55"/><rect class="cls-2" x="54.23" y="239.03" width="5.73" height="6.55"/><rect class="cls-2" x="63.05" y="239.03" width="5.73" height="6.55"/><rect class="cls-2" x="18.95" y="216.03" width="5.73" height="6.55"/><rect class="cls-2" x="10.13" y="216.03" width="5.73" height="6.55"/><rect class="cls-2" x="27.77" y="216.03" width="5.73" height="6.55"/><rect class="cls-2" x="36.59" y="216.03" width="5.73" height="6.55"/><rect class="cls-2" x="45.41" y="216.03" width="5.73" height="6.55"/><rect class="cls-2" x="54.23" y="216.03" width="5.73" height="6.55"/><rect class="cls-2" x="63.05" y="216.03" width="5.73" height="6.55"/><rect class="cls-2" x="18.95" y="193.03" width="5.73" height="6.55"/><rect class="cls-2" x="10.13" y="193.03" width="5.73" height="6.55"/><rect class="cls-2" x="27.77" y="193.03" width="5.73" height="6.55"/><rect class="cls-2" x="36.59" y="193.03" width="5.73" height="6.55"/><rect class="cls-2" x="45.41" y="193.03" width="5.73" height="6.55"/><rect class="cls-2" x="54.23" y="193.03" width="5.73" height="6.55"/><rect class="cls-2" x="63.05" y="193.03" width="5.73" height="6.55"/><rect class="cls-2" x="18.95" y="170.03" width="5.73" height="6.55"/><rect class="cls-2" x="10.13" y="170.03" width="5.73" height="6.55"/><rect class="cls-2" x="27.77" y="170.03" width="5.73" height="6.55"/><rect class="cls-2" x="36.59" y="170.03" width="5.73" height="6.55"/><rect class="cls-2" x="45.41" y="170.03" width="5.73" height="6.55"/><rect class="cls-2" x="54.23" y="170.03" width="5.73" height="6.55"/><rect class="cls-2" x="63.05" y="170.03" width="5.73" height="6.55"/><rect class="cls-2" x="18.95" y="147.03" width="5.73" height="6.55"/><rect class="cls-2" x="10.13" y="147.03" width="5.73" height="6.55"/><rect class="cls-2" x="27.77" y="147.03" width="5.73" height="6.55"/><rect class="cls-2" x="36.59" y="147.03" width="5.73" height="6.55"/><rect class="cls-2" x="45.41" y="147.03" width="5.73" height="6.55"/><rect class="cls-2" x="54.23" y="147.03" width="5.73" height="6.55"/><rect class="cls-2" x="63.05" y="147.03" width="5.73" height="6.55"/><rect class="cls-2" x="18.95" y="124.03" width="5.73" height="6.55"/><rect class="cls-2" x="10.13" y="124.03" width="5.73" height="6.55"/><rect class="cls-2" x="27.77" y="124.03" width="5.73" height="6.55"/><rect class="cls-2" x="36.59" y="124.03" width="5.73" height="6.55"/><rect class="cls-2" x="45.41" y="124.03" width="5.73" height="6.55"/><rect class="cls-2" x="54.23" y="124.03" width="5.73" height="6.55"/><rect class="cls-2" x="63.05" y="124.03" width="5.73" height="6.55"/><line class="cls-2" x1="51.14" y1="68.55" x2="27.35" y2="68.55"/><line class="cls-2" x1="51.14" y1="71.82" x2="27.35" y2="71.82"/><line class="cls-2" x1="51.14" y1="75.1" x2="27.35" y2="75.1"/><line class="cls-2" x1="51.14" y1="78.37" x2="27.35" y2="78.37"/><line class="cls-2" x1="55.48" y1="81.26" x2="23.01" y2="81.26"/><line class="cls-2" x1="55.48" y1="84.54" x2="23.01" y2="84.54"/><line class="cls-2" x1="55.48" y1="87.81" x2="23.01" y2="87.81"/><line class="cls-2" x1="55.48" y1="91.08" x2="23.01" y2="91.08"/><path class="cls-2" d="M53.19,424.16V412a6.91,6.91,0,0,0-13.82,0v12.17"/><path class="cls-2" d="M56.65,340.46a7.77,7.77,0,0,0-15.55,0s1.73,0,1.73.86h3.46a3.2,3.2,0,0,1,2.59-1.73,3.2,3.2,0,0,1,2.59,1.73h3.46C54.92,340.46,56.65,340.46,56.65,340.46Z"/><polyline class="cls-2" points="58.03 333.95 66.15 333.95 67.68 335.48 72.2 335.48 73.92 337"/><rect class="cls-2" x="31.17" y="356.87" width="5.18" height="34.55"/><rect class="cls-2" x="60.54" y="356.87" width="6.05" height="34.55"/><path class="cls-2" d="M57.94,356.87s-2.59-3.46-9.07-3.46-9.07,3.46-9.07,3.46v32H57.94Z"/><path class="cls-2" d="M96.82,318.86a4.32,4.32,0,0,0-6.91,0V331h6.91Z"/><path class="cls-2" d="M106.95,317.77a4.3,4.3,0,0,0-2.36-.63,3.74,3.74,0,0,0-3.46,1.73v4A36.48,36.48,0,0,1,106.95,317.77Z"/><path class="cls-2" d="M159,318.86a4.32,4.32,0,0,1,6.91,0V331H159Z"/><path class="cls-2" d="M148.88,317.77a4.3,4.3,0,0,1,2.36-.63,3.74,3.74,0,0,1,3.46,1.73v4A36.48,36.48,0,0,0,148.88,317.77Z"/><polygon class="cls-2" points="128.78 320.59 127.05 320.59 126.81 323.18 129.02 323.18 128.78 320.59"/><polygon class="cls-2" points="128.78 320.59 127.05 320.59 126.81 323.18 129.02 323.18 128.78 320.59"/><polygon class="cls-2" points="128.78 320.59 127.05 320.59 126.81 323.18 129.02 323.18 128.78 320.59"/><polygon class="cls-2" points="124.68 320.76 122.97 321 123.09 323.6 125.28 323.29 124.68 320.76"/><polygon class="cls-2" points="120.65 321.49 118.99 321.97 119.47 324.52 121.59 323.92 120.65 321.49"/><polygon class="cls-2" points="116.76 322.78 115.18 323.48 116.01 325.95 118.03 325.05 116.76 322.78"/><polygon class="cls-2" points="113.08 324.6 111.62 325.51 112.79 327.84 114.66 326.67 113.08 324.6"/><polygon class="cls-2" points="109.7 326.91 108.37 328.02 109.86 330.16 111.55 328.74 109.7 326.91"/><polygon class="cls-2" points="106.67 329.67 105.51 330.95 107.28 332.86 108.75 331.22 106.67 329.67"/><polygon class="cls-2" points="104.05 332.82 103.08 334.25 105.1 335.9 106.33 334.07 104.05 332.82"/><polygon class="cls-2" points="101.89 336.31 101.14 337.86 103.36 339.21 104.33 337.23 101.89 336.31"/><polygon class="cls-2" points="100.25 340.06 99.72 341.71 102.11 342.74 102.79 340.64 100.25 340.06"/><polygon class="cls-2" points="99.14 344.01 98.84 345.71 101.35 346.4 101.73 344.22 99.14 344.01"/><polygon class="cls-2" points="131.15 320.76 132.86 321 132.74 323.6 130.55 323.29 131.15 320.76"/><polygon class="cls-2" points="135.18 321.49 136.84 321.97 136.36 324.52 134.23 323.92 135.18 321.49"/><polygon class="cls-2" points="139.07 322.78 140.65 323.48 139.81 325.95 137.8 325.05 139.07 322.78"/><polygon class="cls-2" points="142.75 324.6 144.21 325.51 143.04 327.84 141.17 326.67 142.75 324.6"/><polygon class="cls-2" points="146.13 326.91 147.46 328.02 145.97 330.16 144.28 328.74 146.13 326.91"/><polygon class="cls-2" points="149.16 329.67 150.32 330.95 148.55 332.86 147.07 331.22 149.16 329.67"/><polygon class="cls-2" points="151.78 332.82 152.75 334.25 150.73 335.9 149.5 334.07 151.78 332.82"/><polygon class="cls-2" points="153.93 336.31 154.69 337.86 152.47 339.21 151.5 337.23 153.93 336.31"/><polygon class="cls-2" points="155.58 340.06 156.11 341.71 153.72 342.74 153.04 340.64 155.58 340.06"/><polygon class="cls-2" points="156.69 344.01 156.99 345.71 154.48 346.4 154.09 344.22 156.69 344.01"/><path class="cls-2" d="M163.33,309.36s-2.59-16.41-26.78-19.87c-1.73-2.59-2.59-2.59-2.59-2.59v-8.64l-.86-.86v-1.73l-.86.86v.86h-1.73v-1.73h.86v-2.59h-.86l-.86-.86s.86,0,.86-1.73a1.69,1.69,0,0,0-1.73-1.73s4.32,0,4.32-6c-1.73,1.73-3.46,3.46-4.32,3.46v-1.73h-1.73v1.73c-.86,0-2.59-1.73-4.32-3.46,0,6,4.32,6,4.32,6a1.69,1.69,0,0,0-1.73,1.73c0,1.73.86,1.73.86,1.73l-.86.86h-.86v2.59h.86v1.73h-1.73v-.86l-.86-.86v1.73l-.86.86v8.64s-.86,0-2.59,2.59c-24.19,3.46-26.78,19.87-26.78,19.87"/><path class="cls-2" d="M124.46,285.17s-10.37,13-10.37,27.64"/><path class="cls-2" d="M113.14,290.75c.09-.4-7.68,8.24-7.68,18.61"/><path class="cls-2" d="M111.09,291.37s-12.55,6.76-12.55,18.86"/><path class="cls-2" d="M131.37,285.17s10.37,13,10.37,27.64"/><path class="cls-2" d="M142.69,290.75c-.09-.4,7.68,8.24,7.68,18.61"/><path class="cls-2" d="M144.74,291.37s12.55,6.76,12.55,18.86"/><rect class="cls-2" x="118.62" y="367.31" width="5.18" height="14.69"/><rect class="cls-2" x="125.32" y="367.31" width="5.18" height="14.69"/><rect class="cls-2" x="132.02" y="367.31" width="5.18" height="14.69"/><rect class="cls-2" x="125.42" y="357.9" width="4.99" height="3.74"/><rect class="cls-2" x="119.03" y="358.61" width="4.62" height="3.46"/><rect class="cls-2" x="132.18" y="358.61" width="4.62" height="3.46" transform="translate(268.97 720.69) rotate(-180)"/><path class="cls-2" d="M121.87,286.47c0-.24,2.71-2.16,6-2.16s6,1.92,6,2.16"/><path class="cls-2" d="M162.55,339.16a36.28,36.28,0,0,0-69.27,0H62.7v6.91H97.94a30.23,30.23,0,0,1,60,0h35.24v-6.91Z"/><path class="cls-2" d="M127.91,313.68a36.27,36.27,0,0,1,33.17,21.6H172V307.63h-4.32v4.73a9.46,9.46,0,0,0-6.91-3c-.29,0-.58,0-.86,0v-1.77h-2.59V310a9.58,9.58,0,0,0-2.16,1.19,9.48,9.48,0,0,0-12.94,1.61h-6.49v-5.18H133.1v5.18H122.73v-5.18h-2.59v5.18h-6.49a9.48,9.48,0,0,0-12.94-1.61A9.58,9.58,0,0,0,98.54,310v-2.39H96v1.77c-.28,0-.57,0-.86,0a9.46,9.46,0,0,0-6.91,3v-4.73H83.86v27.64H94.74A36.27,36.27,0,0,1,127.91,313.68Z"/><path class="cls-2" d="M111.59,351.69a16.58,16.58,0,0,1-.09-1.73,16.41,16.41,0,0,1,32.83,0,16.58,16.58,0,0,1-.09,1.73H152c0-.57.07-1.15.07-1.73a24.19,24.19,0,0,0-48.37,0c0,.58,0,1.16.07,1.73Z"/><polygon class="cls-2" points="50.82 345.64 46.93 345.64 47.58 349.79 50.17 349.79 50.82 345.64"/><rect class="cls-2" x="52.57" y="347.8" width="2.59" height="2.59"/><rect class="cls-2" x="57.23" y="348.5" width="2.59" height="2.59"/><rect class="cls-2" x="61.71" y="348.5" width="2.59" height="2.59"/><rect class="cls-2" x="42.59" y="347.8" width="2.59" height="2.59" transform="translate(87.77 698.19) rotate(-180)"/><rect class="cls-2" x="37.92" y="348.5" width="2.59" height="2.59" transform="translate(78.44 699.58) rotate(-180)"/><rect class="cls-2" x="33.44" y="348.5" width="2.59" height="2.59" transform="translate(69.48 699.58) rotate(-180)"/><polygon class="cls-2" points="205.01 345.64 208.9 345.64 208.25 349.79 205.66 349.79 205.01 345.64"/><rect class="cls-2" x="200.67" y="347.8" width="2.59" height="2.59" transform="translate(403.93 698.19) rotate(-180)"/><rect class="cls-2" x="196" y="348.5" width="2.59" height="2.59" transform="translate(394.6 699.58) rotate(-180)"/><rect class="cls-2" x="191.52" y="348.5" width="2.59" height="2.59" transform="translate(385.64 699.58) rotate(-180)"/><rect class="cls-2" x="210.65" y="347.8" width="2.59" height="2.59"/><rect class="cls-2" x="215.31" y="348.5" width="2.59" height="2.59"/><rect class="cls-2" x="219.79" y="348.5" width="2.59" height="2.59"/><line class="cls-2" x1="39.72" y1="333.95" x2="36.78" y2="333.95"/><polygon class="cls-2" points="92.06 357.74 92.06 355.14 76.52 355.14 76.52 357.74 74.79 357.74 74.79 386.24 93.79 386.24 93.79 357.74 92.06 357.74"/><rect class="cls-2" x="17.78" y="344.34" width="21.16" height="1.73"/><rect class="cls-2" x="10.87" y="349.1" width="13.82" height="1.73"/><rect class="cls-2" x="5.68" y="359.46" width="25.48" height="1.73"/><path class="cls-2" d="M56.91,424.25v-12a10.61,10.61,0,1,0-21.22,0v12"/><path class="cls-2" d="M59,333.87s5.17-12.42,24.84-12.42"/><path class="cls-2" d="M199.18,340.46a7.77,7.77,0,1,1,15.55,0s-1.73,0-1.73.86h-3.46a2.81,2.81,0,0,0-5.18,0h-3.46C200.91,340.46,199.18,340.46,199.18,340.46Z"/><polyline class="cls-2" points="197.8 333.95 189.68 333.95 188.15 335.48 183.63 335.48 181.9 337"/><line class="cls-2" x1="216.1" y1="333.95" x2="219.05" y2="333.95"/><path class="cls-2" d="M197,346.07c0-1.43,4.45-2.59,9.93-2.59s9.93,1.16,9.93,2.59"/><path class="cls-2" d="M196.85,333.87s-5.17-12.42-24.84-12.42"/><path class="cls-2" d="M157.55,394.88h89.56V362.05h3v-2.59h-3V349.1h-9.05v-9.5h2.59V337H228.55v-3.46h-4.32v-1.73H219V337h-1.41a11.23,11.23,0,0,0-21.37,0H161.79A36.27,36.27,0,0,0,94,337H59.56a11.23,11.23,0,0,0-21.37,0H36.78v-5.18H31.6v1.73H27.28V337H15.18v2.59h2.59v9.5H8.69v10.37h-3v2.59h3v32.83H97.25"/><path class="cls-2" d="M139.12,384.57V350.1a11.21,11.21,0,0,0-22.41,0v34.47"/><polyline class="cls-2" points="97.24 394.88 0.5 394.88 0.5 424.25 255.33 424.25 255.33 394.88 157.54 394.88"/><path class="cls-2" d="M97.25,394.88c0-2.19,13.5-4,30.15-4s30.15,1.78,30.15,4"/><path class="cls-2" d="M97.25,388.22c0-2.19,13.5-4,30.15-4s30.15,1.78,30.15,4"/><path class="cls-2" d="M97.25,397.47c0-2.19,13.5-4,30.15-4s30.15,1.78,30.15,4"/><rect class="cls-2" x="157.55" y="394.88" width="97.78" height="2.59"/><rect class="cls-2" x="0.5" y="394.88" width="96.75" height="2.59"/><rect class="cls-2" x="135.58" y="393.74" width="3.31" height="25.19"/><rect class="cls-2" x="133.26" y="418.93" width="7.94" height="5.23"/><polygon class="cls-2" points="153.66 395.48 150.35 394.88 150.35 418.93 153.66 418.93 153.66 395.48"/><rect class="cls-2" x="148.03" y="418.93" width="7.94" height="5.23"/><rect class="cls-2" x="115.91" y="393.74" width="3.31" height="25.19" transform="translate(235.12 812.68) rotate(-180)"/><rect class="cls-2" x="113.59" y="418.93" width="7.94" height="5.23" transform="translate(235.12 843.1) rotate(-180)"/><polygon class="cls-2" points="101.14 395.48 104.45 394.88 104.45 418.93 101.14 418.93 101.14 395.48"/><rect class="cls-2" x="98.82" y="418.93" width="7.94" height="5.23" transform="translate(205.58 843.1) rotate(-180)"/><polygon class="cls-2" points="93.79 397.47 49.74 397.47 42.85 397.47 3.32 397.47 3.32 399.56 43.23 399.56 43.6 401.65 49 401.65 49.37 399.56 93.79 399.56 93.79 397.47"/><polygon class="cls-2" points="161 397.47 205.05 397.47 211.94 397.47 251.47 397.47 251.47 399.56 211.57 399.56 211.19 401.65 205.79 401.65 205.42 399.56 161 399.56 161 397.47"/><line class="cls-2" x1="144.23" y1="351.69" x2="144.23" y2="384.93"/><line class="cls-2" x1="111.59" y1="351.69" x2="111.59" y2="384.85"/><line class="cls-2" x1="157.55" y1="388.22" x2="157.55" y2="394.88"/><line class="cls-2" x1="97.25" y1="388.22" x2="97.25" y2="394.88"/><rect class="cls-2" x="13.18" y="364.46" width="3.31" height="25.19" transform="translate(29.67 754.11) rotate(-180)"/><path class="cls-2" d="M202.63,424.16V412a6.91,6.91,0,0,1,13.82,0v12.17"/><rect class="cls-2" x="219.48" y="356.87" width="5.18" height="34.55" transform="translate(444.14 748.3) rotate(-180)"/><rect class="cls-2" x="189.25" y="356.87" width="6.05" height="34.55" transform="translate(384.54 748.3) rotate(-180)"/><path class="cls-2" d="M197.88,356.87s2.59-3.46,9.07-3.46,9.07,3.46,9.07,3.46v32H197.88Z"/><polygon class="cls-2" points="163.76 357.74 163.76 355.14 179.31 355.14 179.31 357.74 181.04 357.74 181.04 386.24 162.03 386.24 162.03 357.74 163.76 357.74"/><path class="cls-2" d="M197,346.07c0-1.43,4.45-2.59,9.93-2.59s9.93,1.16,9.93,2.59"/><rect class="cls-2" x="216.89" y="344.34" width="21.16" height="1.73" transform="translate(454.94 690.41) rotate(-180)"/><rect class="cls-2" x="231.14" y="349.1" width="13.82" height="1.73" transform="translate(476.1 699.92) rotate(-180)"/><rect class="cls-2" x="224.66" y="359.46" width="25.48" height="1.73" transform="translate(474.81 720.65) rotate(-180)"/><path class="cls-2" d="M198.92,424.25v-12a10.61,10.61,0,1,1,21.22,0v12"/><rect class="cls-2" x="239.34" y="364.46" width="3.31" height="25.19"/><rect class="cls-2" x="10.87" y="389.65" width="7.94" height="5.23" transform="translate(29.67 784.53) rotate(-180)"/><path class="cls-2" d="M62.7,346.07H58.81c0-1.43-4.45-2.59-9.93-2.59s-9.93,1.16-9.93,2.59"/><line class="cls-2" x1="197.02" y1="346.07" x2="193.13" y2="346.07"/><line class="cls-2" x1="97.45" y1="356.48" x2="108.14" y2="356.48"/><line class="cls-2" x1="97.45" y1="360.02" x2="108.14" y2="360.02"/><line class="cls-2" x1="97.45" y1="363.56" x2="108.14" y2="363.56"/><line class="cls-2" x1="97.45" y1="367.1" x2="108.14" y2="367.1"/><line class="cls-2" x1="97.45" y1="370.64" x2="108.14" y2="370.64"/><line class="cls-2" x1="97.45" y1="374.18" x2="108.14" y2="374.18"/><line class="cls-2" x1="97.45" y1="377.72" x2="108.14" y2="377.72"/><line class="cls-2" x1="97.45" y1="381.26" x2="108.14" y2="381.26"/><line class="cls-2" x1="147.7" y1="356.48" x2="158.38" y2="356.48"/><line class="cls-2" x1="147.7" y1="360.02" x2="158.38" y2="360.02"/><line class="cls-2" x1="147.7" y1="363.56" x2="158.38" y2="363.56"/><line class="cls-2" x1="147.7" y1="367.1" x2="158.38" y2="367.1"/><line class="cls-2" x1="147.7" y1="370.64" x2="158.38" y2="370.64"/><line class="cls-2" x1="147.7" y1="374.18" x2="158.38" y2="374.18"/><line class="cls-2" x1="147.7" y1="377.72" x2="158.38" y2="377.72"/><line class="cls-2" x1="147.7" y1="381.26" x2="158.38" y2="381.26"/><line class="cls-2" x1="157.99" y1="405.81" x2="195.08" y2="405.81"/><line class="cls-2" x1="157.99" y1="409.35" x2="195.08" y2="409.35"/><line class="cls-2" x1="157.99" y1="412.89" x2="195.08" y2="412.89"/><line class="cls-2" x1="157.99" y1="416.43" x2="195.08" y2="416.43"/><line class="cls-2" x1="96.81" y1="405.81" x2="59.72" y2="405.81"/><line class="cls-2" x1="96.81" y1="409.35" x2="59.72" y2="409.35"/><line class="cls-2" x1="96.81" y1="412.89" x2="59.72" y2="412.89"/><line class="cls-2" x1="96.81" y1="416.43" x2="59.72" y2="416.43"/><line class="cls-2" x1="6.24" y1="362.9" x2="6.24" y2="394.19"/><path class="cls-2" d="M72.24,323.6V118.25h-6v-23h-8V73.75L49,62.5H41.74V3A2.5,2.5,0,0,0,39.24.5h0A2.5,2.5,0,0,0,36.74,3V62.5H29.47L20.24,73.75v21.5h-8v23h-6V358.61"/><path class="cls-2" d="M6.24,358.61V118.25h6v-23h8V73.75L29.47,62.5h7.28V3A2.5,2.5,0,0,1,39.24.5h0A2.5,2.5,0,0,1,41.74,3V62.5H49l9.22,11.25v21.5h8v23h6V323.6c-5.66,0-13.27,7.13-13.27,9.8a15.18,15.18,0,0,0-10.42-4.16c-4.39,0-8.83,2.54-8.83,4.63a27.29,27.29,0,0,0-2.85.08l-.1-2.19H31.59v1.82H27.13V337H14.84v2.5h2.94v9.3H8.69v9.82Z"/></g></g></svg>