<svg xmlns="http://www.w3.org/2000/svg" xmlns:xlink="http://www.w3.org/1999/xlink" viewBox="0 0 1280 800"><defs><style>.cls-1,.cls-11,.cls-13,.cls-4{fill:none;}.cls-2{fill:#ccc;}.cls-12,.cls-3{fill:#cbd4ef;}.cls-11,.cls-12,.cls-13,.cls-4,.cls-5,.cls-6,.cls-7,.cls-8,.cls-9{stroke:#000a8b;}.cls-11,.cls-4,.cls-9{stroke-miterlimit:10;}.cls-5{fill:#59577c;}.cls-12,.cls-13,.cls-5,.cls-6,.cls-7,.cls-8{stroke-linejoin:round;}.cls-12,.cls-13,.cls-5,.cls-9{stroke-width:0.73px;}.cls-6{fill:#fff;stroke-width:0.7px;}.cls-7,.cls-8{fill:#c9ceff;}.cls-7{stroke-width:0.65px;}.cls-8{stroke-width:0.65px;}.cls-9{fill:#9798ad;}.cls-10{clip-path:url(#clip-path);}.cls-11{stroke-width:1.12px;}</style><clipPath id="clip-path"><polygon class="cls-1" points="677.85 674.58 783.37 735.15 783.37 614.01 677.85 674.58"/></clipPath></defs><title>hero_gracias</title><g id="Layer_1" data-name="Layer 1"><rect class="cls-2" width="1280" height="800"/></g><g id="Layer_2" data-name="Layer 2"><polygon class="cls-3" points="86.34 544.67 71.61 559.4 101.89 559.4 86.34 544.67"/><rect class="cls-3" x="71.2" y="558.99" width="30.28" height="43.37"/><rect class="cls-3" x="64.24" y="601.96" width="43.37" height="36.01"/><rect class="cls-3" x="54.42" y="637.96" width="61.38" height="31.92"/><rect class="cls-3" x="35.6" y="669.88" width="99.84" height="106.39"/><rect class="cls-3" y="775.86" width="136.67" height="22.91"/><polyline class="cls-4" points="0 798.77 0 776.68 36.01 776.68 36.01 670.29 54.83 670.29 54.83 638.37 64.65 638.37 64.65 602.37 71.61 602.37 71.61 558.58 86.34 544.67 101.48 558.58 101.48 602.37 108.02 602.37 108.02 638.37 116.21 638.37 116.21 670.29 135.85 670.29 135.85 743.12"/><rect class="cls-4" x="76.11" y="608.09" width="4.91" height="4.91"/><rect class="cls-4" x="83.88" y="608.09" width="4.91" height="4.91"/><rect class="cls-4" x="91.66" y="608.09" width="4.91" height="4.91"/><rect class="cls-4" x="76.11" y="619.55" width="4.91" height="4.91"/><rect class="cls-4" x="83.88" y="619.55" width="4.91" height="4.91"/><rect class="cls-4" x="91.66" y="619.55" width="4.91" height="4.91"/><rect class="cls-4" x="76.11" y="631.01" width="4.91" height="4.91"/><rect class="cls-4" x="83.88" y="631.01" width="4.91" height="4.91"/><rect class="cls-4" x="91.66" y="631.01" width="4.91" height="4.91"/><rect class="cls-4" x="60.56" y="659.65" width="4.91" height="4.91"/><rect class="cls-4" x="68.33" y="659.65" width="4.91" height="4.91"/><rect class="cls-4" x="76.11" y="659.65" width="4.91" height="4.91"/><rect class="cls-4" x="83.47" y="659.65" width="4.91" height="4.91"/><rect class="cls-4" x="91.25" y="659.65" width="4.91" height="4.91"/><rect class="cls-4" x="99.02" y="659.65" width="4.91" height="4.91"/><rect class="cls-4" x="107.21" y="659.65" width="4.91" height="4.91"/><rect class="cls-4" x="60.56" y="682.57" width="4.91" height="4.91"/><rect class="cls-4" x="68.33" y="682.57" width="4.91" height="4.91"/><rect class="cls-4" x="76.11" y="682.57" width="4.91" height="4.91"/><rect class="cls-4" x="83.47" y="682.57" width="4.91" height="4.91"/><rect class="cls-4" x="91.25" y="682.57" width="4.91" height="4.91"/><rect class="cls-4" x="99.02" y="682.57" width="4.91" height="4.91"/><rect class="cls-4" x="107.21" y="682.57" width="4.91" height="4.91"/><rect class="cls-4" x="60.56" y="707.93" width="4.91" height="4.91"/><rect class="cls-4" x="68.33" y="707.93" width="4.91" height="4.91"/><rect class="cls-4" x="76.11" y="707.93" width="4.91" height="4.91"/><rect class="cls-4" x="83.47" y="707.93" width="4.91" height="4.91"/><rect class="cls-4" x="91.25" y="707.93" width="4.91" height="4.91"/><rect class="cls-4" x="99.02" y="707.93" width="4.91" height="4.91"/><rect class="cls-4" x="107.21" y="707.93" width="4.91" height="4.91"/><rect class="cls-4" x="60.56" y="731.67" width="4.91" height="4.91"/><rect class="cls-4" x="68.33" y="731.67" width="4.91" height="4.91"/><rect class="cls-4" x="76.11" y="731.67" width="4.91" height="4.91"/><rect class="cls-4" x="83.47" y="731.67" width="4.91" height="4.91"/><rect class="cls-4" x="91.25" y="731.67" width="4.91" height="4.91"/><rect class="cls-4" x="99.02" y="731.67" width="4.91" height="4.91"/><rect class="cls-4" x="107.21" y="731.67" width="4.91" height="4.91"/><rect class="cls-4" x="60.56" y="756.22" width="4.91" height="4.91"/><rect class="cls-4" x="68.33" y="756.22" width="4.91" height="4.91"/><rect class="cls-4" x="76.11" y="756.22" width="4.91" height="4.91"/><rect class="cls-4" x="83.47" y="756.22" width="4.91" height="4.91"/><rect class="cls-4" x="91.25" y="756.22" width="4.91" height="4.91"/><rect class="cls-4" x="99.02" y="756.22" width="4.91" height="4.91"/><rect class="cls-4" x="107.21" y="756.22" width="4.91" height="4.91"/><rect class="cls-4" x="45.01" y="779.13" width="4.91" height="4.91"/><rect class="cls-4" x="52.78" y="779.13" width="4.91" height="4.91"/><rect class="cls-4" x="60.56" y="779.13" width="4.91" height="4.91"/><rect class="cls-4" x="67.92" y="779.13" width="4.91" height="4.91"/><rect class="cls-4" x="75.7" y="779.13" width="4.91" height="4.91"/><rect class="cls-4" x="83.47" y="779.13" width="4.91" height="4.91"/><rect class="cls-4" x="91.66" y="779.13" width="4.91" height="4.91"/><rect class="cls-4" x="99.02" y="779.13" width="4.91" height="4.91"/><rect class="cls-4" x="106.8" y="779.13" width="4.91" height="4.91"/><rect class="cls-4" x="114.57" y="779.13" width="4.91" height="4.91"/><rect class="cls-4" x="122.75" y="779.13" width="4.91" height="4.91"/><line class="cls-4" x1="45.01" y1="788.95" x2="127.66" y2="788.95"/><line class="cls-4" x1="45.01" y1="797.95" x2="45.01" y2="788.95"/><line class="cls-4" x1="49.1" y1="797.95" x2="49.1" y2="788.95"/><line class="cls-4" x1="53.19" y1="797.95" x2="53.19" y2="788.95"/><line class="cls-4" x1="57.29" y1="797.95" x2="57.29" y2="788.95"/><line class="cls-4" x1="61.38" y1="797.95" x2="61.38" y2="788.95"/><line class="cls-4" x1="65.47" y1="797.95" x2="65.47" y2="788.95"/><line class="cls-4" x1="69.56" y1="797.95" x2="69.56" y2="788.95"/><line class="cls-4" x1="73.65" y1="797.95" x2="73.65" y2="788.95"/><line class="cls-4" x1="77.74" y1="797.95" x2="77.74" y2="788.95"/><line class="cls-4" x1="81.84" y1="797.95" x2="81.84" y2="788.95"/><line class="cls-4" x1="85.93" y1="797.95" x2="85.93" y2="788.95"/><line class="cls-4" x1="90.02" y1="797.95" x2="90.02" y2="788.95"/><line class="cls-4" x1="94.11" y1="797.95" x2="94.11" y2="788.95"/><line class="cls-4" x1="98.2" y1="797.95" x2="98.2" y2="788.95"/><line class="cls-4" x1="102.29" y1="797.95" x2="102.29" y2="788.95"/><line class="cls-4" x1="106.39" y1="797.95" x2="106.39" y2="788.95"/><line class="cls-4" x1="110.48" y1="797.95" x2="110.48" y2="788.95"/><line class="cls-4" x1="114.57" y1="797.95" x2="114.57" y2="788.95"/><line class="cls-4" x1="118.66" y1="797.95" x2="118.66" y2="788.95"/><line class="cls-4" x1="122.75" y1="797.95" x2="122.75" y2="788.95"/><line class="cls-4" x1="126.85" y1="797.95" x2="126.85" y2="788.95"/><line class="cls-4" x1="135.85" y1="743.12" x2="135.85" y2="799.59"/><rect class="cls-3" x="330" y="672.34" width="48.28" height="126.85"/><polyline class="cls-4" points="378.29 671.52 330 671.52 330 799.18"/><rect class="cls-4" x="356.6" y="678.47" width="15.55" height="6.55"/><rect class="cls-4" x="336.14" y="678.47" width="15.55" height="6.55"/><rect class="cls-4" x="356.6" y="690.75" width="15.55" height="6.55"/><rect class="cls-4" x="336.14" y="690.75" width="15.55" height="6.55"/><rect class="cls-4" x="356.6" y="703.02" width="15.55" height="6.55"/><rect class="cls-4" x="336.14" y="703.02" width="15.55" height="6.55"/><rect class="cls-4" x="356.6" y="715.3" width="15.55" height="6.55"/><rect class="cls-4" x="336.14" y="715.3" width="15.55" height="6.55"/><rect class="cls-4" x="356.6" y="727.58" width="15.55" height="6.55"/><rect class="cls-4" x="336.14" y="727.58" width="15.55" height="6.55"/><rect class="cls-4" x="356.6" y="739.85" width="15.55" height="6.55"/><rect class="cls-4" x="336.14" y="739.85" width="15.55" height="6.55"/><rect class="cls-4" x="356.6" y="752.13" width="15.55" height="6.55"/><rect class="cls-4" x="336.14" y="752.13" width="15.55" height="6.55"/><rect class="cls-4" x="356.6" y="764.4" width="15.55" height="6.55"/><rect class="cls-4" x="336.14" y="764.4" width="15.55" height="6.55"/><rect class="cls-4" x="356.6" y="776.68" width="15.55" height="6.55"/><rect class="cls-4" x="336.14" y="776.68" width="15.55" height="6.55"/><rect class="cls-4" x="356.6" y="788.95" width="15.55" height="6.55"/><rect class="cls-4" x="336.14" y="788.95" width="15.55" height="6.55"/><polyline class="cls-4" points="289.5 743.12 297.27 743.12 297.27 725.53 307.91 714.89 317.32 724.3 317.32 743.94 330 743.94"/><line class="cls-4" x1="312.41" y1="799.59" x2="312.41" y2="728.39"/><line class="cls-4" x1="316.5" y1="799.59" x2="316.5" y2="748.03"/><line class="cls-4" x1="320.59" y1="800" x2="320.59" y2="748.44"/><line class="cls-4" x1="323.87" y1="800" x2="323.87" y2="748.44"/><line class="cls-4" x1="306.68" y1="720.21" x2="303.41" y2="720.21"/><line class="cls-4" x1="306.68" y1="724.3" x2="299.31" y2="724.3"/><line class="cls-4" x1="306.68" y1="727.58" x2="297.68" y2="727.58"/><line class="cls-4" x1="306.68" y1="731.67" x2="297.68" y2="731.67"/><line class="cls-4" x1="306.68" y1="735.76" x2="297.68" y2="735.76"/><line class="cls-4" x1="306.68" y1="739.85" x2="296.86" y2="739.85"/><line class="cls-4" x1="306.68" y1="743.12" x2="290.31" y2="743.12"/><line class="cls-4" x1="306.68" y1="747.22" x2="289.49" y2="747.22"/><line class="cls-4" x1="306.68" y1="751.31" x2="289.49" y2="751.31"/><line class="cls-4" x1="306.68" y1="755.4" x2="289.49" y2="755.4"/><line class="cls-4" x1="306.68" y1="759.49" x2="289.49" y2="759.49"/><line class="cls-4" x1="306.68" y1="763.58" x2="289.49" y2="763.58"/><line class="cls-4" x1="306.68" y1="767.67" x2="289.49" y2="767.67"/><line class="cls-4" x1="306.68" y1="771.77" x2="289.49" y2="771.77"/><line class="cls-4" x1="306.68" y1="775.86" x2="289.49" y2="775.86"/><line class="cls-4" x1="306.68" y1="779.95" x2="289.49" y2="779.95"/><line class="cls-4" x1="306.68" y1="784.04" x2="289.49" y2="784.04"/><line class="cls-4" x1="306.68" y1="788.13" x2="289.49" y2="788.13"/><line class="cls-4" x1="306.68" y1="792.23" x2="289.49" y2="792.23"/><line class="cls-4" x1="306.68" y1="796.32" x2="289.49" y2="796.32"/><rect class="cls-4" x="76.11" y="581.09" width="4.91" height="15.55"/><rect class="cls-4" x="84.29" y="581.09" width="4.91" height="15.55"/><rect class="cls-4" x="91.66" y="581.09" width="4.91" height="15.55"/><polyline class="cls-4" points="137.28 800 137.28 644.51 144.65 635.51 144.65 598.68 149.56 591.32 149.56 535.67"/><polyline class="cls-4" points="289.5 799.18 289.5 643.69 283.77 635.51 283.77 598.68 278.04 590.5 278.04 557.77 207.66 557.77 207.66 535.67 149.56 535.67"/><line class="cls-4" x1="138.92" y1="651.88" x2="155.28" y2="651.88"/><line class="cls-4" x1="138.92" y1="656.79" x2="155.28" y2="656.79"/><line class="cls-4" x1="138.92" y1="661.7" x2="155.28" y2="661.7"/><line class="cls-4" x1="138.92" y1="666.61" x2="155.28" y2="666.61"/><line class="cls-4" x1="138.92" y1="671.52" x2="155.28" y2="671.52"/><line class="cls-4" x1="138.92" y1="676.43" x2="155.28" y2="676.43"/><line class="cls-4" x1="138.92" y1="681.34" x2="155.28" y2="681.34"/><line class="cls-4" x1="138.92" y1="686.25" x2="155.28" y2="686.25"/><line class="cls-4" x1="138.92" y1="691.16" x2="155.28" y2="691.16"/><line class="cls-4" x1="138.92" y1="696.07" x2="155.28" y2="696.07"/><line class="cls-4" x1="138.92" y1="700.98" x2="155.28" y2="700.98"/><line class="cls-4" x1="138.92" y1="705.89" x2="155.28" y2="705.89"/><line class="cls-4" x1="138.92" y1="710.8" x2="155.28" y2="710.8"/><line class="cls-4" x1="138.92" y1="715.71" x2="155.28" y2="715.71"/><line class="cls-4" x1="138.92" y1="720.62" x2="155.28" y2="720.62"/><line class="cls-4" x1="138.92" y1="725.53" x2="155.28" y2="725.53"/><line class="cls-4" x1="138.92" y1="730.44" x2="155.28" y2="730.44"/><line class="cls-4" x1="138.92" y1="735.35" x2="155.28" y2="735.35"/><line class="cls-4" x1="138.92" y1="740.26" x2="155.28" y2="740.26"/><line class="cls-4" x1="138.92" y1="745.17" x2="155.28" y2="745.17"/><line class="cls-4" x1="138.92" y1="750.08" x2="155.28" y2="750.08"/><line class="cls-4" x1="138.92" y1="754.99" x2="155.28" y2="754.99"/><line class="cls-4" x1="138.92" y1="759.9" x2="155.28" y2="759.9"/><line class="cls-4" x1="138.92" y1="764.81" x2="155.28" y2="764.81"/><line class="cls-4" x1="138.92" y1="769.72" x2="155.28" y2="769.72"/><line class="cls-4" x1="138.92" y1="774.63" x2="155.28" y2="774.63"/><line class="cls-4" x1="138.92" y1="779.54" x2="155.28" y2="779.54"/><line class="cls-4" x1="138.92" y1="784.45" x2="155.28" y2="784.45"/><line class="cls-4" x1="138.92" y1="789.36" x2="155.28" y2="789.36"/><line class="cls-4" x1="138.92" y1="794.27" x2="155.28" y2="794.27"/><line class="cls-4" x1="138.92" y1="799.18" x2="155.28" y2="799.18"/><line class="cls-4" x1="176.97" y1="661.7" x2="181.06" y2="661.7"/><line class="cls-4" x1="176.97" y1="666.61" x2="181.06" y2="666.61"/><line class="cls-4" x1="176.97" y1="671.52" x2="181.06" y2="671.52"/><line class="cls-4" x1="176.97" y1="676.43" x2="181.06" y2="676.43"/><line class="cls-4" x1="176.97" y1="681.34" x2="181.06" y2="681.34"/><line class="cls-4" x1="176.97" y1="686.25" x2="181.06" y2="686.25"/><line class="cls-4" x1="176.97" y1="691.16" x2="181.06" y2="691.16"/><line class="cls-4" x1="176.97" y1="696.07" x2="181.06" y2="696.07"/><line class="cls-4" x1="176.97" y1="700.98" x2="181.06" y2="700.98"/><line class="cls-4" x1="176.97" y1="705.89" x2="181.06" y2="705.89"/><line class="cls-4" x1="176.97" y1="710.8" x2="181.06" y2="710.8"/><line class="cls-4" x1="176.97" y1="715.71" x2="181.06" y2="715.71"/><line class="cls-4" x1="176.97" y1="720.62" x2="181.06" y2="720.62"/><line class="cls-4" x1="176.97" y1="725.53" x2="181.06" y2="725.53"/><line class="cls-4" x1="176.97" y1="730.44" x2="181.06" y2="730.44"/><line class="cls-4" x1="176.97" y1="735.35" x2="181.06" y2="735.35"/><line class="cls-4" x1="176.97" y1="740.26" x2="181.06" y2="740.26"/><line class="cls-4" x1="176.97" y1="745.17" x2="181.06" y2="745.17"/><line class="cls-4" x1="176.97" y1="750.08" x2="181.06" y2="750.08"/><line class="cls-4" x1="176.97" y1="754.99" x2="181.06" y2="754.99"/><line class="cls-4" x1="176.97" y1="759.9" x2="181.06" y2="759.9"/><line class="cls-4" x1="176.97" y1="764.81" x2="181.06" y2="764.81"/><line class="cls-4" x1="176.97" y1="769.72" x2="181.06" y2="769.72"/><line class="cls-4" x1="176.97" y1="774.63" x2="181.06" y2="774.63"/><line class="cls-4" x1="176.97" y1="779.54" x2="181.06" y2="779.54"/><line class="cls-4" x1="176.97" y1="784.45" x2="181.06" y2="784.45"/><line class="cls-4" x1="176.97" y1="789.36" x2="181.06" y2="789.36"/><line class="cls-4" x1="176.97" y1="794.27" x2="181.06" y2="794.27"/><line class="cls-4" x1="176.97" y1="799.18" x2="181.06" y2="799.18"/><line class="cls-4" x1="202.76" y1="661.7" x2="213.1" y2="661.7"/><line class="cls-4" x1="202.76" y1="666.61" x2="213.1" y2="666.61"/><line class="cls-4" x1="202.76" y1="671.52" x2="213.1" y2="671.52"/><line class="cls-4" x1="202.76" y1="676.43" x2="213.1" y2="676.43"/><line class="cls-4" x1="202.76" y1="681.34" x2="213.1" y2="681.34"/><line class="cls-4" x1="202.76" y1="686.25" x2="213.1" y2="686.25"/><line class="cls-4" x1="202.76" y1="691.16" x2="213.1" y2="691.16"/><line class="cls-4" x1="202.76" y1="696.07" x2="213.1" y2="696.07"/><line class="cls-4" x1="202.76" y1="700.98" x2="213.1" y2="700.98"/><line class="cls-4" x1="202.76" y1="705.89" x2="213.1" y2="705.89"/><line class="cls-4" x1="202.76" y1="710.8" x2="213.1" y2="710.8"/><line class="cls-4" x1="202.76" y1="715.71" x2="213.1" y2="715.71"/><line class="cls-4" x1="202.76" y1="720.62" x2="213.1" y2="720.62"/><line class="cls-4" x1="202.76" y1="725.53" x2="213.1" y2="725.53"/><line class="cls-4" x1="202.76" y1="730.44" x2="213.1" y2="730.44"/><line class="cls-4" x1="202.76" y1="735.35" x2="213.1" y2="735.35"/><line class="cls-4" x1="202.76" y1="740.26" x2="213.1" y2="740.26"/><line class="cls-4" x1="202.76" y1="745.17" x2="213.1" y2="745.17"/><line class="cls-4" x1="202.76" y1="750.08" x2="213.1" y2="750.08"/><line class="cls-4" x1="202.76" y1="754.99" x2="213.1" y2="754.99"/><line class="cls-4" x1="202.76" y1="759.9" x2="213.1" y2="759.9"/><line class="cls-4" x1="202.76" y1="764.81" x2="213.1" y2="764.81"/><line class="cls-4" x1="202.76" y1="769.72" x2="213.1" y2="769.72"/><line class="cls-4" x1="202.76" y1="774.63" x2="213.1" y2="774.63"/><line class="cls-4" x1="202.76" y1="779.54" x2="213.1" y2="779.54"/><line class="cls-4" x1="202.76" y1="784.45" x2="213.1" y2="784.45"/><line class="cls-4" x1="202.76" y1="789.36" x2="213.1" y2="789.36"/><line class="cls-4" x1="202.76" y1="794.27" x2="213.1" y2="794.27"/><line class="cls-4" x1="202.76" y1="799.18" x2="213.1" y2="799.18"/><line class="cls-4" x1="229.77" y1="661.7" x2="235.07" y2="661.7"/><line class="cls-4" x1="229.77" y1="666.61" x2="235.07" y2="666.61"/><line class="cls-4" x1="229.77" y1="671.52" x2="235.07" y2="671.52"/><line class="cls-4" x1="229.77" y1="676.43" x2="235.07" y2="676.43"/><line class="cls-4" x1="229.77" y1="681.34" x2="235.07" y2="681.34"/><line class="cls-4" x1="229.77" y1="686.25" x2="235.07" y2="686.25"/><line class="cls-4" x1="229.77" y1="691.16" x2="235.07" y2="691.16"/><line class="cls-4" x1="229.77" y1="696.07" x2="235.07" y2="696.07"/><line class="cls-4" x1="229.77" y1="700.98" x2="235.07" y2="700.98"/><line class="cls-4" x1="229.77" y1="705.89" x2="235.07" y2="705.89"/><line class="cls-4" x1="229.77" y1="710.8" x2="235.07" y2="710.8"/><line class="cls-4" x1="229.77" y1="715.71" x2="235.07" y2="715.71"/><line class="cls-4" x1="229.77" y1="720.62" x2="235.07" y2="720.62"/><line class="cls-4" x1="229.77" y1="725.53" x2="235.07" y2="725.53"/><line class="cls-4" x1="229.77" y1="730.44" x2="235.07" y2="730.44"/><line class="cls-4" x1="229.77" y1="735.35" x2="235.07" y2="735.35"/><line class="cls-4" x1="229.77" y1="740.26" x2="235.07" y2="740.26"/><line class="cls-4" x1="229.77" y1="745.17" x2="235.07" y2="745.17"/><line class="cls-4" x1="229.77" y1="750.08" x2="235.07" y2="750.08"/><line class="cls-4" x1="229.77" y1="754.99" x2="235.07" y2="754.99"/><line class="cls-4" x1="229.77" y1="759.9" x2="235.07" y2="759.9"/><line class="cls-4" x1="229.77" y1="764.81" x2="235.07" y2="764.81"/><line class="cls-4" x1="229.77" y1="769.72" x2="235.07" y2="769.72"/><line class="cls-4" x1="229.77" y1="774.63" x2="235.07" y2="774.63"/><line class="cls-4" x1="229.77" y1="779.54" x2="235.07" y2="779.54"/><line class="cls-4" x1="229.77" y1="784.45" x2="235.07" y2="784.45"/><line class="cls-4" x1="229.77" y1="789.36" x2="235.07" y2="789.36"/><line class="cls-4" x1="229.77" y1="794.27" x2="235.07" y2="794.27"/><line class="cls-4" x1="255.96" y1="651.88" x2="271.9" y2="651.88"/><line class="cls-4" x1="255.96" y1="656.75" x2="271.9" y2="656.75"/><line class="cls-4" x1="255.96" y1="661.62" x2="271.9" y2="661.62"/><line class="cls-4" x1="255.96" y1="666.48" x2="271.9" y2="666.48"/><line class="cls-4" x1="255.96" y1="671.35" x2="271.9" y2="671.35"/><line class="cls-4" x1="255.96" y1="676.22" x2="271.9" y2="676.22"/><line class="cls-4" x1="255.96" y1="681.09" x2="271.9" y2="681.09"/><line class="cls-4" x1="255.96" y1="685.96" x2="271.9" y2="685.96"/><line class="cls-4" x1="255.96" y1="690.83" x2="271.9" y2="690.83"/><line class="cls-4" x1="255.96" y1="695.7" x2="271.9" y2="695.7"/><line class="cls-4" x1="255.96" y1="700.57" x2="271.9" y2="700.57"/><line class="cls-4" x1="255.96" y1="705.44" x2="271.9" y2="705.44"/><line class="cls-4" x1="255.96" y1="710.31" x2="271.9" y2="710.31"/><line class="cls-4" x1="255.96" y1="715.18" x2="271.9" y2="715.18"/><line class="cls-4" x1="255.96" y1="720.05" x2="271.9" y2="720.05"/><line class="cls-4" x1="255.96" y1="724.92" x2="271.9" y2="724.92"/><line class="cls-4" x1="255.96" y1="729.78" x2="271.9" y2="729.78"/><line class="cls-4" x1="255.96" y1="734.65" x2="271.9" y2="734.65"/><line class="cls-4" x1="255.96" y1="739.52" x2="271.9" y2="739.52"/><line class="cls-4" x1="255.96" y1="744.39" x2="271.9" y2="744.39"/><line class="cls-4" x1="255.96" y1="749.26" x2="271.9" y2="749.26"/><line class="cls-4" x1="255.96" y1="754.13" x2="271.9" y2="754.13"/><line class="cls-4" x1="255.96" y1="759" x2="271.9" y2="759"/><line class="cls-4" x1="255.96" y1="763.87" x2="271.9" y2="763.87"/><line class="cls-4" x1="255.96" y1="768.74" x2="271.9" y2="768.74"/><line class="cls-4" x1="255.96" y1="773.61" x2="271.9" y2="773.61"/><line class="cls-4" x1="255.96" y1="778.48" x2="271.9" y2="778.48"/><line class="cls-4" x1="255.96" y1="783.35" x2="271.9" y2="783.35"/><line class="cls-4" x1="255.96" y1="788.22" x2="271.9" y2="788.22"/><line class="cls-4" x1="255.96" y1="793.08" x2="271.9" y2="793.08"/><line class="cls-4" x1="255.96" y1="797.95" x2="271.9" y2="797.95"/><line class="cls-4" x1="229.77" y1="800" x2="235.07" y2="800"/><rect class="cls-4" x="175.74" y="643.69" width="76.93" height="156.31"/><line class="cls-4" x1="137.28" y1="643.69" x2="175.74" y2="643.69"/><polyline class="cls-4" points="138.92 647.78 171.7 647.78 174.61 647.78"/><line class="cls-4" x1="172.47" y1="798.36" x2="172.47" y2="647.79"/><line class="cls-4" x1="255.94" y1="647.79" x2="287.86" y2="647.79"/><line class="cls-4" x1="255.94" y1="643.69" x2="289.49" y2="643.69"/><line class="cls-4" x1="145.46" y1="640.42" x2="282.13" y2="640.42"/><line class="cls-4" x1="145.46" y1="635.51" x2="283.77" y2="635.51"/><line class="cls-4" x1="198.66" y1="661.7" x2="198.66" y2="799.59"/><line class="cls-4" x1="226.48" y1="661.7" x2="226.48" y2="799.59"/><rect class="cls-4" x="223.21" y="586.41" width="12.28" height="20.46"/><rect class="cls-4" x="238.76" y="586.41" width="12.28" height="20.46"/><rect class="cls-4" x="255.12" y="586.41" width="12.28" height="20.46"/><line class="cls-4" x1="223" y1="579.86" x2="235.28" y2="579.86"/><line class="cls-4" x1="223" y1="583.13" x2="235.28" y2="583.13"/><line class="cls-4" x1="239.17" y1="579.86" x2="251.44" y2="579.86"/><line class="cls-4" x1="239.17" y1="583.13" x2="251.44" y2="583.13"/><line class="cls-4" x1="254.71" y1="579.86" x2="266.99" y2="579.86"/><line class="cls-4" x1="254.71" y1="583.13" x2="266.99" y2="583.13"/><rect class="cls-4" x="221.57" y="612.6" width="5.73" height="6.55"/><rect class="cls-4" x="229.75" y="612.6" width="5.73" height="6.55"/><rect class="cls-4" x="237.94" y="612.6" width="5.73" height="6.55"/><rect class="cls-4" x="246.12" y="612.6" width="5.73" height="6.55"/><rect class="cls-4" x="254.31" y="612.6" width="5.73" height="6.55"/><rect class="cls-4" x="262.49" y="612.6" width="5.73" height="6.55"/><rect class="cls-4" x="221.57" y="624.05" width="5.73" height="6.55"/><rect class="cls-4" x="229.75" y="624.05" width="5.73" height="6.55"/><rect class="cls-4" x="237.94" y="624.05" width="5.73" height="6.55"/><rect class="cls-4" x="246.12" y="624.05" width="5.73" height="6.55"/><rect class="cls-4" x="254.31" y="624.05" width="5.73" height="6.55"/><rect class="cls-4" x="262.49" y="624.05" width="5.73" height="6.55"/><rect class="cls-4" x="159.38" y="586.41" width="12.28" height="20.46"/><rect class="cls-4" x="174.92" y="586.41" width="12.28" height="20.46"/><rect class="cls-4" x="191.29" y="586.41" width="12.28" height="20.46"/><line class="cls-4" x1="159.17" y1="579.86" x2="171.45" y2="579.86"/><line class="cls-4" x1="159.17" y1="583.13" x2="171.45" y2="583.13"/><line class="cls-4" x1="175.33" y1="579.86" x2="187.61" y2="579.86"/><line class="cls-4" x1="175.33" y1="583.13" x2="187.61" y2="583.13"/><line class="cls-4" x1="190.88" y1="579.86" x2="203.16" y2="579.86"/><line class="cls-4" x1="190.88" y1="583.13" x2="203.16" y2="583.13"/><rect class="cls-4" x="157.74" y="612.6" width="5.73" height="6.55"/><rect class="cls-4" x="165.92" y="612.6" width="5.73" height="6.55"/><rect class="cls-4" x="174.11" y="612.6" width="5.73" height="6.55"/><rect class="cls-4" x="182.29" y="612.6" width="5.73" height="6.55"/><rect class="cls-4" x="190.47" y="612.6" width="5.73" height="6.55"/><rect class="cls-4" x="198.66" y="612.6" width="5.73" height="6.55"/><rect class="cls-4" x="157.74" y="624.05" width="5.73" height="6.55"/><rect class="cls-4" x="165.92" y="624.05" width="5.73" height="6.55"/><rect class="cls-4" x="174.11" y="624.05" width="5.73" height="6.55"/><rect class="cls-4" x="182.29" y="624.05" width="5.73" height="6.55"/><rect class="cls-4" x="190.47" y="624.05" width="5.73" height="6.55"/><rect class="cls-4" x="198.66" y="624.05" width="5.73" height="6.55"/><line class="cls-4" x1="210.11" y1="562.27" x2="210.11" y2="631.01"/><line class="cls-4" x1="213.39" y1="562.27" x2="213.39" y2="631.01"/><line class="cls-4" x1="216.66" y1="562.27" x2="216.66" y2="631.01"/><line class="cls-4" x1="378.29" y1="671.52" x2="378.29" y2="799.18"/><polyline class="cls-4" points="1127.79 799.59 1127.79 644.1 1135.15 635.1 1135.15 598.27 1140.06 590.91 1140.06 535.26"/><polyline class="cls-4" points="1280 798.77 1280 643.28 1274.27 635.1 1274.27 598.27 1268.54 590.09 1268.54 557.36 1198.16 557.36 1198.16 535.26 1140.06 535.26"/><line class="cls-4" x1="1129.42" y1="651.47" x2="1145.79" y2="651.47"/><line class="cls-4" x1="1129.42" y1="656.38" x2="1145.79" y2="656.38"/><line class="cls-4" x1="1129.42" y1="661.29" x2="1145.79" y2="661.29"/><line class="cls-4" x1="1129.42" y1="666.2" x2="1145.79" y2="666.2"/><line class="cls-4" x1="1129.42" y1="671.11" x2="1145.79" y2="671.11"/><line class="cls-4" x1="1129.42" y1="676.02" x2="1145.79" y2="676.02"/><line class="cls-4" x1="1129.42" y1="680.93" x2="1145.79" y2="680.93"/><line class="cls-4" x1="1129.42" y1="685.84" x2="1145.79" y2="685.84"/><line class="cls-4" x1="1129.42" y1="690.75" x2="1145.79" y2="690.75"/><line class="cls-4" x1="1129.42" y1="695.66" x2="1145.79" y2="695.66"/><line class="cls-4" x1="1129.42" y1="700.57" x2="1145.79" y2="700.57"/><line class="cls-4" x1="1129.42" y1="705.48" x2="1145.79" y2="705.48"/><line class="cls-4" x1="1129.42" y1="710.39" x2="1145.79" y2="710.39"/><line class="cls-4" x1="1129.42" y1="715.3" x2="1145.79" y2="715.3"/><line class="cls-4" x1="1129.42" y1="720.21" x2="1145.79" y2="720.21"/><line class="cls-4" x1="1129.42" y1="725.12" x2="1145.79" y2="725.12"/><line class="cls-4" x1="1129.42" y1="730.03" x2="1145.79" y2="730.03"/><line class="cls-4" x1="1129.42" y1="734.94" x2="1145.79" y2="734.94"/><line class="cls-4" x1="1129.42" y1="739.85" x2="1145.79" y2="739.85"/><line class="cls-4" x1="1129.42" y1="744.76" x2="1145.79" y2="744.76"/><line class="cls-4" x1="1129.42" y1="749.67" x2="1145.79" y2="749.67"/><line class="cls-4" x1="1129.42" y1="754.58" x2="1145.79" y2="754.58"/><line class="cls-4" x1="1129.42" y1="759.49" x2="1145.79" y2="759.49"/><line class="cls-4" x1="1129.42" y1="764.4" x2="1145.79" y2="764.4"/><line class="cls-4" x1="1129.42" y1="769.31" x2="1145.79" y2="769.31"/><line class="cls-4" x1="1129.42" y1="774.22" x2="1145.79" y2="774.22"/><line class="cls-4" x1="1129.42" y1="779.13" x2="1145.79" y2="779.13"/><line class="cls-4" x1="1129.42" y1="784.04" x2="1145.79" y2="784.04"/><line class="cls-4" x1="1129.42" y1="788.95" x2="1145.79" y2="788.95"/><line class="cls-4" x1="1129.42" y1="793.86" x2="1145.79" y2="793.86"/><line class="cls-4" x1="1129.42" y1="798.77" x2="1145.79" y2="798.77"/><line class="cls-4" x1="1167.48" y1="661.29" x2="1171.57" y2="661.29"/><line class="cls-4" x1="1167.48" y1="666.2" x2="1171.57" y2="666.2"/><line class="cls-4" x1="1167.48" y1="671.11" x2="1171.57" y2="671.11"/><line class="cls-4" x1="1167.48" y1="676.02" x2="1171.57" y2="676.02"/><line class="cls-4" x1="1167.48" y1="680.93" x2="1171.57" y2="680.93"/><line class="cls-4" x1="1167.48" y1="685.84" x2="1171.57" y2="685.84"/><line class="cls-4" x1="1167.48" y1="690.75" x2="1171.57" y2="690.75"/><line class="cls-4" x1="1167.48" y1="695.66" x2="1171.57" y2="695.66"/><line class="cls-4" x1="1167.48" y1="700.57" x2="1171.57" y2="700.57"/><line class="cls-4" x1="1167.48" y1="705.48" x2="1171.57" y2="705.48"/><line class="cls-4" x1="1167.48" y1="710.39" x2="1171.57" y2="710.39"/><line class="cls-4" x1="1167.48" y1="715.3" x2="1171.57" y2="715.3"/><line class="cls-4" x1="1167.48" y1="720.21" x2="1171.57" y2="720.21"/><line class="cls-4" x1="1167.48" y1="725.12" x2="1171.57" y2="725.12"/><line class="cls-4" x1="1167.48" y1="730.03" x2="1171.57" y2="730.03"/><line class="cls-4" x1="1167.48" y1="734.94" x2="1171.57" y2="734.94"/><line class="cls-4" x1="1167.48" y1="739.85" x2="1171.57" y2="739.85"/><line class="cls-4" x1="1167.48" y1="744.76" x2="1171.57" y2="744.76"/><line class="cls-4" x1="1167.48" y1="749.67" x2="1171.57" y2="749.67"/><line class="cls-4" x1="1167.48" y1="754.58" x2="1171.57" y2="754.58"/><line class="cls-4" x1="1167.48" y1="759.49" x2="1171.57" y2="759.49"/><line class="cls-4" x1="1167.48" y1="764.4" x2="1171.57" y2="764.4"/><line class="cls-4" x1="1167.48" y1="769.31" x2="1171.57" y2="769.31"/><line class="cls-4" x1="1167.48" y1="774.22" x2="1171.57" y2="774.22"/><line class="cls-4" x1="1167.48" y1="779.13" x2="1171.57" y2="779.13"/><line class="cls-4" x1="1167.48" y1="784.04" x2="1171.57" y2="784.04"/><line class="cls-4" x1="1167.48" y1="788.95" x2="1171.57" y2="788.95"/><line class="cls-4" x1="1167.48" y1="793.86" x2="1171.57" y2="793.86"/><line class="cls-4" x1="1167.48" y1="798.77" x2="1171.57" y2="798.77"/><line class="cls-4" x1="1193.27" y1="661.29" x2="1203.6" y2="661.29"/><line class="cls-4" x1="1193.27" y1="666.2" x2="1203.6" y2="666.2"/><line class="cls-4" x1="1193.27" y1="671.11" x2="1203.6" y2="671.11"/><line class="cls-4" x1="1193.27" y1="676.02" x2="1203.6" y2="676.02"/><line class="cls-4" x1="1193.27" y1="680.93" x2="1203.6" y2="680.93"/><line class="cls-4" x1="1193.27" y1="685.84" x2="1203.6" y2="685.84"/><line class="cls-4" x1="1193.27" y1="690.75" x2="1203.6" y2="690.75"/><line class="cls-4" x1="1193.27" y1="695.66" x2="1203.6" y2="695.66"/><line class="cls-4" x1="1193.27" y1="700.57" x2="1203.6" y2="700.57"/><line class="cls-4" x1="1193.27" y1="705.48" x2="1203.6" y2="705.48"/><line class="cls-4" x1="1193.27" y1="710.39" x2="1203.6" y2="710.39"/><line class="cls-4" x1="1193.27" y1="715.3" x2="1203.6" y2="715.3"/><line class="cls-4" x1="1193.27" y1="720.21" x2="1203.6" y2="720.21"/><line class="cls-4" x1="1193.27" y1="725.12" x2="1203.6" y2="725.12"/><line class="cls-4" x1="1193.27" y1="730.03" x2="1203.6" y2="730.03"/><line class="cls-4" x1="1193.27" y1="734.94" x2="1203.6" y2="734.94"/><line class="cls-4" x1="1193.27" y1="739.85" x2="1203.6" y2="739.85"/><line class="cls-4" x1="1193.27" y1="744.76" x2="1203.6" y2="744.76"/><line class="cls-4" x1="1193.27" y1="749.67" x2="1203.6" y2="749.67"/><line class="cls-4" x1="1193.27" y1="754.58" x2="1203.6" y2="754.58"/><line class="cls-4" x1="1193.27" y1="759.49" x2="1203.6" y2="759.49"/><line class="cls-4" x1="1193.27" y1="764.4" x2="1203.6" y2="764.4"/><line class="cls-4" x1="1193.27" y1="769.31" x2="1203.6" y2="769.31"/><line class="cls-4" x1="1193.27" y1="774.22" x2="1203.6" y2="774.22"/><line class="cls-4" x1="1193.27" y1="779.13" x2="1203.6" y2="779.13"/><line class="cls-4" x1="1193.27" y1="784.04" x2="1203.6" y2="784.04"/><line class="cls-4" x1="1193.27" y1="788.95" x2="1203.6" y2="788.95"/><line class="cls-4" x1="1193.27" y1="793.86" x2="1203.6" y2="793.86"/><line class="cls-4" x1="1193.27" y1="798.77" x2="1203.6" y2="798.77"/><line class="cls-4" x1="1220.27" y1="661.29" x2="1225.58" y2="661.29"/><line class="cls-4" x1="1220.27" y1="666.2" x2="1225.58" y2="666.2"/><line class="cls-4" x1="1220.27" y1="671.11" x2="1225.58" y2="671.11"/><line class="cls-4" x1="1220.27" y1="676.02" x2="1225.58" y2="676.02"/><line class="cls-4" x1="1220.27" y1="680.93" x2="1225.58" y2="680.93"/><line class="cls-4" x1="1220.27" y1="685.84" x2="1225.58" y2="685.84"/><line class="cls-4" x1="1220.27" y1="690.75" x2="1225.58" y2="690.75"/><line class="cls-4" x1="1220.27" y1="695.66" x2="1225.58" y2="695.66"/><line class="cls-4" x1="1220.27" y1="700.57" x2="1225.58" y2="700.57"/><line class="cls-4" x1="1220.27" y1="705.48" x2="1225.58" y2="705.48"/><line class="cls-4" x1="1220.27" y1="710.39" x2="1225.58" y2="710.39"/><line class="cls-4" x1="1220.27" y1="715.3" x2="1225.58" y2="715.3"/><line class="cls-4" x1="1220.27" y1="720.21" x2="1225.58" y2="720.21"/><line class="cls-4" x1="1220.27" y1="725.12" x2="1225.58" y2="725.12"/><line class="cls-4" x1="1220.27" y1="730.03" x2="1225.58" y2="730.03"/><line class="cls-4" x1="1220.27" y1="734.94" x2="1225.58" y2="734.94"/><line class="cls-4" x1="1220.27" y1="739.85" x2="1225.58" y2="739.85"/><line class="cls-4" x1="1220.27" y1="744.76" x2="1225.58" y2="744.76"/><line class="cls-4" x1="1220.27" y1="749.67" x2="1225.58" y2="749.67"/><line class="cls-4" x1="1220.27" y1="754.58" x2="1225.58" y2="754.58"/><line class="cls-4" x1="1220.27" y1="759.49" x2="1225.58" y2="759.49"/><line class="cls-4" x1="1220.27" y1="764.4" x2="1225.58" y2="764.4"/><line class="cls-4" x1="1220.27" y1="769.31" x2="1225.58" y2="769.31"/><line class="cls-4" x1="1220.27" y1="774.22" x2="1225.58" y2="774.22"/><line class="cls-4" x1="1220.27" y1="779.13" x2="1225.58" y2="779.13"/><line class="cls-4" x1="1220.27" y1="784.04" x2="1225.58" y2="784.04"/><line class="cls-4" x1="1220.27" y1="788.95" x2="1225.58" y2="788.95"/><line class="cls-4" x1="1220.27" y1="793.86" x2="1225.58" y2="793.86"/><line class="cls-4" x1="1246.46" y1="651.47" x2="1262.41" y2="651.47"/><line class="cls-4" x1="1246.46" y1="656.34" x2="1262.41" y2="656.34"/><line class="cls-4" x1="1246.46" y1="661.21" x2="1262.41" y2="661.21"/><line class="cls-4" x1="1246.46" y1="666.08" x2="1262.41" y2="666.08"/><line class="cls-4" x1="1246.46" y1="670.94" x2="1262.41" y2="670.94"/><line class="cls-4" x1="1246.46" y1="675.81" x2="1262.41" y2="675.81"/><line class="cls-4" x1="1246.46" y1="680.68" x2="1262.41" y2="680.68"/><line class="cls-4" x1="1246.46" y1="685.55" x2="1262.41" y2="685.55"/><line class="cls-4" x1="1246.46" y1="690.42" x2="1262.41" y2="690.42"/><line class="cls-4" x1="1246.46" y1="695.29" x2="1262.41" y2="695.29"/><line class="cls-4" x1="1246.46" y1="700.16" x2="1262.41" y2="700.16"/><line class="cls-4" x1="1246.46" y1="705.03" x2="1262.41" y2="705.03"/><line class="cls-4" x1="1246.46" y1="709.9" x2="1262.41" y2="709.9"/><line class="cls-4" x1="1246.46" y1="714.77" x2="1262.41" y2="714.77"/><line class="cls-4" x1="1246.46" y1="719.64" x2="1262.41" y2="719.64"/><line class="cls-4" x1="1246.46" y1="724.51" x2="1262.41" y2="724.51"/><line class="cls-4" x1="1246.46" y1="729.38" x2="1262.41" y2="729.38"/><line class="cls-4" x1="1246.46" y1="734.24" x2="1262.41" y2="734.24"/><line class="cls-4" x1="1246.46" y1="739.11" x2="1262.41" y2="739.11"/><line class="cls-4" x1="1246.46" y1="743.98" x2="1262.41" y2="743.98"/><line class="cls-4" x1="1246.46" y1="748.85" x2="1262.41" y2="748.85"/><line class="cls-4" x1="1246.46" y1="753.72" x2="1262.41" y2="753.72"/><line class="cls-4" x1="1246.46" y1="758.59" x2="1262.41" y2="758.59"/><line class="cls-4" x1="1246.46" y1="763.46" x2="1262.41" y2="763.46"/><line class="cls-4" x1="1246.46" y1="768.33" x2="1262.41" y2="768.33"/><line class="cls-4" x1="1246.46" y1="773.2" x2="1262.41" y2="773.2"/><line class="cls-4" x1="1246.46" y1="778.07" x2="1262.41" y2="778.07"/><line class="cls-4" x1="1246.46" y1="782.94" x2="1262.41" y2="782.94"/><line class="cls-4" x1="1246.46" y1="787.81" x2="1262.41" y2="787.81"/><line class="cls-4" x1="1246.46" y1="792.68" x2="1262.41" y2="792.68"/><line class="cls-4" x1="1246.46" y1="797.54" x2="1262.41" y2="797.54"/><line class="cls-4" x1="1220.27" y1="799.59" x2="1225.58" y2="799.59"/><rect class="cls-4" x="1166.25" y="643.28" width="76.93" height="156.31"/><line class="cls-4" x1="1127.79" y1="643.28" x2="1166.25" y2="643.28"/><polyline class="cls-4" points="1129.42 647.38 1162.21 647.38 1165.11 647.38"/><line class="cls-4" x1="1162.97" y1="797.95" x2="1162.97" y2="647.38"/><line class="cls-4" x1="1246.45" y1="647.38" x2="1278.36" y2="647.38"/><line class="cls-4" x1="1246.45" y1="643.28" x2="1280" y2="643.28"/><line class="cls-4" x1="1135.97" y1="640.01" x2="1272.63" y2="640.01"/><line class="cls-4" x1="1135.97" y1="635.1" x2="1274.27" y2="635.1"/><line class="cls-4" x1="1189.16" y1="661.29" x2="1189.16" y2="799.18"/><line class="cls-4" x1="1216.99" y1="661.29" x2="1216.99" y2="799.18"/><rect class="cls-4" x="1213.71" y="586" width="12.28" height="20.46"/><rect class="cls-4" x="1229.26" y="586" width="12.28" height="20.46"/><rect class="cls-4" x="1245.63" y="586" width="12.28" height="20.46"/><line class="cls-4" x1="1213.51" y1="579.45" x2="1225.78" y2="579.45"/><line class="cls-4" x1="1213.51" y1="582.73" x2="1225.78" y2="582.73"/><line class="cls-4" x1="1229.67" y1="579.45" x2="1241.95" y2="579.45"/><line class="cls-4" x1="1229.67" y1="582.73" x2="1241.95" y2="582.73"/><line class="cls-4" x1="1245.22" y1="579.45" x2="1257.5" y2="579.45"/><line class="cls-4" x1="1245.22" y1="582.73" x2="1257.5" y2="582.73"/><rect class="cls-4" x="1212.08" y="612.19" width="5.73" height="6.55"/><rect class="cls-4" x="1220.26" y="612.19" width="5.73" height="6.55"/><rect class="cls-4" x="1228.44" y="612.19" width="5.73" height="6.55"/><rect class="cls-4" x="1236.63" y="612.19" width="5.73" height="6.55"/><rect class="cls-4" x="1244.81" y="612.19" width="5.73" height="6.55"/><rect class="cls-4" x="1252.99" y="612.19" width="5.73" height="6.55"/><rect class="cls-4" x="1212.08" y="623.64" width="5.73" height="6.55"/><rect class="cls-4" x="1220.26" y="623.64" width="5.73" height="6.55"/><rect class="cls-4" x="1228.44" y="623.64" width="5.73" height="6.55"/><rect class="cls-4" x="1236.63" y="623.64" width="5.73" height="6.55"/><rect class="cls-4" x="1244.81" y="623.64" width="5.73" height="6.55"/><rect class="cls-4" x="1252.99" y="623.64" width="5.73" height="6.55"/><rect class="cls-4" x="1149.88" y="586" width="12.28" height="20.46"/><rect class="cls-4" x="1165.43" y="586" width="12.28" height="20.46"/><rect class="cls-4" x="1181.8" y="586" width="12.28" height="20.46"/><line class="cls-4" x1="1149.68" y1="579.45" x2="1161.95" y2="579.45"/><line class="cls-4" x1="1149.68" y1="582.73" x2="1161.95" y2="582.73"/><line class="cls-4" x1="1165.84" y1="579.45" x2="1178.11" y2="579.45"/><line class="cls-4" x1="1165.84" y1="582.73" x2="1178.11" y2="582.73"/><line class="cls-4" x1="1181.39" y1="579.45" x2="1193.66" y2="579.45"/><line class="cls-4" x1="1181.39" y1="582.73" x2="1193.66" y2="582.73"/><rect class="cls-4" x="1148.24" y="612.19" width="5.73" height="6.55"/><rect class="cls-4" x="1156.43" y="612.19" width="5.73" height="6.55"/><rect class="cls-4" x="1164.61" y="612.19" width="5.73" height="6.55"/><rect class="cls-4" x="1172.79" y="612.19" width="5.73" height="6.55"/><rect class="cls-4" x="1180.98" y="612.19" width="5.73" height="6.55"/><rect class="cls-4" x="1189.16" y="612.19" width="5.73" height="6.55"/><rect class="cls-4" x="1148.24" y="623.64" width="5.73" height="6.55"/><rect class="cls-4" x="1156.43" y="623.64" width="5.73" height="6.55"/><rect class="cls-4" x="1164.61" y="623.64" width="5.73" height="6.55"/><rect class="cls-4" x="1172.79" y="623.64" width="5.73" height="6.55"/><rect class="cls-4" x="1180.98" y="623.64" width="5.73" height="6.55"/><rect class="cls-4" x="1189.16" y="623.64" width="5.73" height="6.55"/><line class="cls-4" x1="1200.62" y1="561.86" x2="1200.62" y2="630.6"/><line class="cls-4" x1="1203.89" y1="561.86" x2="1203.89" y2="630.6"/><line class="cls-4" x1="1207.17" y1="561.86" x2="1207.17" y2="630.6"/><polygon class="cls-3" points="1031.22 582.32 1014.03 599.5 1047.59 599.5 1031.22 582.32"/><rect class="cls-3" x="1004.21" y="759.9" width="14.73" height="23.73"/><rect class="cls-3" x="1004.21" y="599.5" width="54.01" height="160.4"/><rect class="cls-3" x="866.73" y="766.45" width="110.48" height="32.73"/><polyline class="cls-4" points="904.78 766.45 904.78 716.94 912.15 716.94 912.15 710.39 918.7 710.39 918.7 716.94 927.7 716.94 927.7 710.39 941.61 702.21 956.34 709.57 956.34 718.57 963.7 718.57 963.7 710.39 970.25 710.39 970.25 718.57 977.62 718.57"/><rect class="cls-4" x="977.62" y="615.46" width="27.01" height="167.76"/><polyline class="cls-4" points="977.62 615.46 977.62 582.73 998.08 582.73 998.08 571.27 1061.91 571.27 1061.91 584.36 1127.38 584.36"/><polyline class="cls-4" points="1004.62 615.46 1004.62 599.09 1013.62 599.09 1030.81 581.91 1047.59 598.68 1057.82 598.68 1057.82 759.49"/><line class="cls-4" x1="977.62" y1="797.14" x2="977.62" y2="783.22"/><polyline class="cls-4" points="1004.62 783.22 1018.53 783.22 1018.53 759.49 1072.55 759.49 1072.55 783.22 1099.55 783.22 1099.55 798.77"/><line class="cls-4" x1="934.24" y1="712.84" x2="948.16" y2="712.84"/><line class="cls-4" x1="934.65" y1="716.94" x2="948.56" y2="716.94"/><line class="cls-4" x1="934.65" y1="726.76" x2="948.56" y2="726.76"/><line class="cls-4" x1="934.65" y1="730.85" x2="948.56" y2="730.85"/><line class="cls-4" x1="934.65" y1="734.94" x2="948.56" y2="734.94"/><line class="cls-4" x1="934.65" y1="739.03" x2="948.56" y2="739.03"/><line class="cls-4" x1="955.93" y1="726.76" x2="969.84" y2="726.76"/><line class="cls-4" x1="955.93" y1="730.85" x2="969.84" y2="730.85"/><line class="cls-4" x1="955.93" y1="734.94" x2="969.84" y2="734.94"/><line class="cls-4" x1="955.93" y1="739.03" x2="969.84" y2="739.03"/><line class="cls-4" x1="912.56" y1="725.94" x2="926.47" y2="725.94"/><line class="cls-4" x1="912.56" y1="730.03" x2="926.47" y2="730.03"/><line class="cls-4" x1="912.56" y1="734.12" x2="926.47" y2="734.12"/><line class="cls-4" x1="912.56" y1="738.21" x2="926.47" y2="738.21"/><line class="cls-4" x1="934.65" y1="748.85" x2="948.56" y2="748.85"/><line class="cls-4" x1="934.65" y1="752.94" x2="948.56" y2="752.94"/><line class="cls-4" x1="934.65" y1="757.04" x2="948.56" y2="757.04"/><line class="cls-4" x1="934.65" y1="761.13" x2="948.56" y2="761.13"/><line class="cls-4" x1="955.93" y1="748.85" x2="969.84" y2="748.85"/><line class="cls-4" x1="955.93" y1="752.94" x2="969.84" y2="752.94"/><line class="cls-4" x1="955.93" y1="757.04" x2="969.84" y2="757.04"/><line class="cls-4" x1="955.93" y1="761.13" x2="969.84" y2="761.13"/><line class="cls-4" x1="912.56" y1="748.03" x2="926.47" y2="748.03"/><line class="cls-4" x1="912.56" y1="752.13" x2="926.47" y2="752.13"/><line class="cls-4" x1="912.56" y1="756.22" x2="926.47" y2="756.22"/><line class="cls-4" x1="912.56" y1="760.31" x2="926.47" y2="760.31"/><line class="cls-4" x1="867.14" y1="766.04" x2="977.62" y2="766.04"/><line class="cls-4" x1="871.23" y1="771.77" x2="971.89" y2="771.77"/><rect class="cls-4" x="928.51" y="780.77" width="38.46" height="7.37"/><rect class="cls-4" x="878.59" y="780.77" width="37.64" height="8.18"/><rect class="cls-4" x="1008.71" y="617.1" width="12.28" height="20.46"/><rect class="cls-4" x="1024.26" y="617.1" width="12.28" height="20.46"/><rect class="cls-4" x="1040.63" y="617.1" width="12.28" height="20.46"/><line class="cls-4" x1="1008.51" y1="610.55" x2="1020.78" y2="610.55"/><line class="cls-4" x1="1008.51" y1="613.82" x2="1020.78" y2="613.82"/><line class="cls-4" x1="1024.67" y1="610.55" x2="1036.95" y2="610.55"/><line class="cls-4" x1="1024.67" y1="613.82" x2="1036.95" y2="613.82"/><line class="cls-4" x1="1040.22" y1="610.55" x2="1052.5" y2="610.55"/><line class="cls-4" x1="1040.22" y1="613.82" x2="1052.5" y2="613.82"/><rect class="cls-4" x="1007.08" y="643.28" width="5.73" height="6.55"/><rect class="cls-4" x="1015.26" y="643.28" width="5.73" height="6.55"/><rect class="cls-4" x="1023.44" y="643.28" width="5.73" height="6.55"/><rect class="cls-4" x="1031.63" y="643.28" width="5.73" height="6.55"/><rect class="cls-4" x="1039.81" y="643.28" width="5.73" height="6.55"/><rect class="cls-4" x="1048" y="643.28" width="5.73" height="6.55"/><rect class="cls-4" x="1007.08" y="654.74" width="5.73" height="6.55"/><rect class="cls-4" x="1015.26" y="654.74" width="5.73" height="6.55"/><rect class="cls-4" x="1023.44" y="654.74" width="5.73" height="6.55"/><rect class="cls-4" x="1031.63" y="654.74" width="5.73" height="6.55"/><rect class="cls-4" x="1039.81" y="654.74" width="5.73" height="6.55"/><rect class="cls-4" x="1048" y="654.74" width="5.73" height="6.55"/><rect class="cls-4" x="1007.08" y="666.2" width="5.73" height="6.55"/><rect class="cls-4" x="1015.26" y="666.2" width="5.73" height="6.55"/><rect class="cls-4" x="1023.44" y="666.2" width="5.73" height="6.55"/><rect class="cls-4" x="1031.63" y="666.2" width="5.73" height="6.55"/><rect class="cls-4" x="1039.81" y="666.2" width="5.73" height="6.55"/><rect class="cls-4" x="1048" y="666.2" width="5.73" height="6.55"/><rect class="cls-4" x="1007.08" y="677.66" width="5.73" height="6.55"/><rect class="cls-4" x="1015.26" y="677.66" width="5.73" height="6.55"/><rect class="cls-4" x="1023.44" y="677.66" width="5.73" height="6.55"/><rect class="cls-4" x="1031.63" y="677.66" width="5.73" height="6.55"/><rect class="cls-4" x="1039.81" y="677.66" width="5.73" height="6.55"/><rect class="cls-4" x="1048" y="677.66" width="5.73" height="6.55"/><rect class="cls-4" x="1007.08" y="689.11" width="5.73" height="6.55"/><rect class="cls-4" x="1015.26" y="689.11" width="5.73" height="6.55"/><rect class="cls-4" x="1023.44" y="689.11" width="5.73" height="6.55"/><rect class="cls-4" x="1031.63" y="689.11" width="5.73" height="6.55"/><rect class="cls-4" x="1039.81" y="689.11" width="5.73" height="6.55"/><rect class="cls-4" x="1048" y="689.11" width="5.73" height="6.55"/><rect class="cls-4" x="1007.08" y="700.57" width="5.73" height="6.55"/><rect class="cls-4" x="1015.26" y="700.57" width="5.73" height="6.55"/><rect class="cls-4" x="1023.44" y="700.57" width="5.73" height="6.55"/><rect class="cls-4" x="1031.63" y="700.57" width="5.73" height="6.55"/><rect class="cls-4" x="1039.81" y="700.57" width="5.73" height="6.55"/><rect class="cls-4" x="1048" y="700.57" width="5.73" height="6.55"/><rect class="cls-4" x="1007.08" y="712.03" width="5.73" height="6.55"/><rect class="cls-4" x="1015.26" y="712.03" width="5.73" height="6.55"/><rect class="cls-4" x="1023.44" y="712.03" width="5.73" height="6.55"/><rect class="cls-4" x="1031.63" y="712.03" width="5.73" height="6.55"/><rect class="cls-4" x="1039.81" y="712.03" width="5.73" height="6.55"/><rect class="cls-4" x="1048" y="712.03" width="5.73" height="6.55"/><rect class="cls-4" x="1007.08" y="723.48" width="5.73" height="6.55"/><rect class="cls-4" x="1015.26" y="723.48" width="5.73" height="6.55"/><rect class="cls-4" x="1023.44" y="723.48" width="5.73" height="6.55"/><rect class="cls-4" x="1031.63" y="723.48" width="5.73" height="6.55"/><rect class="cls-4" x="1039.81" y="723.48" width="5.73" height="6.55"/><rect class="cls-4" x="1048" y="723.48" width="5.73" height="6.55"/><rect class="cls-4" x="1007.08" y="734.94" width="5.73" height="6.55"/><rect class="cls-4" x="1015.26" y="734.94" width="5.73" height="6.55"/><rect class="cls-4" x="1023.44" y="734.94" width="5.73" height="6.55"/><rect class="cls-4" x="1031.63" y="734.94" width="5.73" height="6.55"/><rect class="cls-4" x="1039.81" y="734.94" width="5.73" height="6.55"/><rect class="cls-4" x="1048" y="734.94" width="5.73" height="6.55"/><rect class="cls-4" x="1007.08" y="746.4" width="5.73" height="6.55"/><rect class="cls-4" x="1007.08" y="756.22" width="5.73" height="6.55"/><rect class="cls-4" x="1007.08" y="766.04" width="5.73" height="6.55"/><rect class="cls-4" x="1015.26" y="746.4" width="5.73" height="6.55"/><rect class="cls-4" x="1023.44" y="746.4" width="5.73" height="6.55"/><rect class="cls-4" x="1031.63" y="746.4" width="5.73" height="6.55"/><rect class="cls-4" x="1039.81" y="746.4" width="5.73" height="6.55"/><rect class="cls-4" x="1048" y="746.4" width="5.73" height="6.55"/><line class="cls-4" x1="998.08" y1="586.82" x2="979.25" y2="586.82"/><line class="cls-4" x1="998.08" y1="590.09" x2="979.25" y2="590.09"/><line class="cls-4" x1="998.08" y1="593.36" x2="979.25" y2="593.36"/><line class="cls-4" x1="998.08" y1="596.64" x2="979.25" y2="596.64"/><line class="cls-4" x1="1127.79" y1="586.82" x2="1062.32" y2="586.82"/><line class="cls-4" x1="1127.79" y1="590.09" x2="1062.32" y2="590.09"/><line class="cls-4" x1="1127.79" y1="593.36" x2="1062.32" y2="593.36"/><line class="cls-4" x1="1127.79" y1="596.64" x2="1062.32" y2="596.64"/><line class="cls-4" x1="1061.09" y1="615.46" x2="1127.38" y2="615.46"/><line class="cls-4" x1="1074.18" y1="610.55" x2="1087.28" y2="610.55"/><line class="cls-4" x1="1090.14" y1="610.55" x2="1103.23" y2="610.55"/><line class="cls-4" x1="1105.69" y1="610.55" x2="1118.78" y2="610.55"/><line class="cls-4" x1="1065.59" y1="624.46" x2="1090.14" y2="624.46"/><line class="cls-4" x1="1065.59" y1="635.92" x2="1090.14" y2="635.92"/><line class="cls-4" x1="1065.59" y1="647.38" x2="1090.14" y2="647.38"/><line class="cls-4" x1="1065.59" y1="658.83" x2="1090.14" y2="658.83"/><line class="cls-4" x1="1065.59" y1="670.29" x2="1090.14" y2="670.29"/><line class="cls-4" x1="1065.59" y1="681.75" x2="1090.14" y2="681.75"/><line class="cls-4" x1="1065.59" y1="693.2" x2="1090.14" y2="693.2"/><line class="cls-4" x1="1065.59" y1="704.66" x2="1090.14" y2="704.66"/><line class="cls-4" x1="1065.59" y1="716.12" x2="1090.14" y2="716.12"/><line class="cls-4" x1="1065.59" y1="727.58" x2="1090.14" y2="727.58"/><line class="cls-4" x1="1065.59" y1="739.03" x2="1090.14" y2="739.03"/><line class="cls-4" x1="1065.59" y1="750.49" x2="1090.14" y2="750.49"/><line class="cls-4" x1="1077.87" y1="761.95" x2="1090.14" y2="761.95"/><line class="cls-4" x1="1077.87" y1="773.4" x2="1090.14" y2="773.4"/><line class="cls-4" x1="1096.69" y1="624.46" x2="1121.24" y2="624.46"/><line class="cls-4" x1="1096.69" y1="635.92" x2="1121.24" y2="635.92"/><line class="cls-4" x1="1096.69" y1="647.38" x2="1121.24" y2="647.38"/><line class="cls-4" x1="1096.69" y1="658.83" x2="1121.24" y2="658.83"/><line class="cls-4" x1="1096.69" y1="670.29" x2="1121.24" y2="670.29"/><line class="cls-4" x1="1096.69" y1="681.75" x2="1121.24" y2="681.75"/><line class="cls-4" x1="1096.69" y1="693.2" x2="1121.24" y2="693.2"/><line class="cls-4" x1="1096.69" y1="704.66" x2="1121.24" y2="704.66"/><line class="cls-4" x1="1096.69" y1="716.12" x2="1121.24" y2="716.12"/><line class="cls-4" x1="1096.69" y1="727.58" x2="1121.24" y2="727.58"/><line class="cls-4" x1="1096.69" y1="739.03" x2="1121.24" y2="739.03"/><line class="cls-4" x1="1096.69" y1="750.49" x2="1121.24" y2="750.49"/><line class="cls-4" x1="1096.69" y1="761.95" x2="1121.24" y2="761.95"/><line class="cls-4" x1="1096.69" y1="773.4" x2="1121.24" y2="773.4"/><line class="cls-4" x1="1108.96" y1="782.41" x2="1121.24" y2="782.41"/><line class="cls-4" x1="1108.96" y1="793.86" x2="1121.24" y2="793.86"/><line class="cls-4" x1="1042.27" y1="765.63" x2="1042.27" y2="799.18"/><line class="cls-4" x1="1046.9" y1="765.63" x2="1046.9" y2="799.18"/><line class="cls-4" x1="1051.54" y1="765.63" x2="1051.54" y2="799.18"/><line class="cls-4" x1="1056.18" y1="765.63" x2="1056.18" y2="799.18"/><line class="cls-4" x1="1083.18" y1="789.36" x2="1083.18" y2="795.91"/><line class="cls-4" x1="1087.82" y1="789.36" x2="1087.82" y2="795.91"/><line class="cls-4" x1="1092.46" y1="789.36" x2="1092.46" y2="795.91"/><line class="cls-4" x1="1097.1" y1="789.36" x2="1097.1" y2="795.91"/><line class="cls-4" x1="1127.38" y1="584.36" x2="1127.79" y2="799.59"/><line class="cls-4" x1="867.14" y1="766.04" x2="866.73" y2="799.18"/></g><g id="Layer_3" data-name="Layer 3"><path class="cls-5" d="M567.08,614,654.5,537.1a31.38,31.38,0,0,1,41.45,0L783.37,614V735.16H567.08Z"/><rect class="cls-6" x="599.21" y="555.46" width="152.03" height="178.82"/><polygon class="cls-7" points="672.6 674.58 567.08 614.01 567.08 735.15 672.6 674.58"/><polygon class="cls-8" points="677.85 674.58 783.37 735.15 783.37 614.01 677.85 674.58"/><circle class="cls-9" cx="726.5" cy="580.35" r="14.87"/><rect class="cls-2" x="610.78" y="575.54" width="95.08" height="9.61"/><rect class="cls-2" x="610.78" y="604.4" width="130.58" height="9.61"/><rect class="cls-2" x="609.93" y="619.64" width="130.58" height="9.61"/><g class="cls-10"><line class="cls-11" x1="781.7" y1="627.88" x2="699.26" y2="627.88"/><line class="cls-11" x1="782.58" y1="623.19" x2="700.15" y2="623.19"/><line class="cls-11" x1="781.7" y1="633" x2="699.26" y2="633"/><line class="cls-11" x1="781.7" y1="638.12" x2="699.26" y2="638.12"/><line class="cls-11" x1="781.7" y1="643.24" x2="699.26" y2="643.24"/><line class="cls-11" x1="781.7" y1="648.36" x2="699.26" y2="648.36"/><line class="cls-11" x1="781.7" y1="653.48" x2="699.26" y2="653.48"/><line class="cls-11" x1="781.7" y1="658.6" x2="699.26" y2="658.6"/><line class="cls-11" x1="781.7" y1="663.72" x2="699.26" y2="663.72"/><line class="cls-11" x1="781.7" y1="668.84" x2="699.26" y2="668.84"/><line class="cls-11" x1="781.7" y1="673.96" x2="699.26" y2="673.96"/><line class="cls-11" x1="781.7" y1="679.08" x2="699.26" y2="679.08"/><line class="cls-11" x1="781.7" y1="684.2" x2="699.26" y2="684.2"/><line class="cls-11" x1="781.7" y1="689.32" x2="699.26" y2="689.32"/><line class="cls-11" x1="781.7" y1="694.44" x2="699.26" y2="694.44"/><line class="cls-11" x1="781.7" y1="699.56" x2="699.26" y2="699.56"/><line class="cls-11" x1="781.7" y1="704.68" x2="699.26" y2="704.68"/><line class="cls-11" x1="781.7" y1="709.8" x2="699.26" y2="709.8"/><line class="cls-11" x1="781.7" y1="714.92" x2="699.26" y2="714.92"/><line class="cls-11" x1="781.7" y1="720.04" x2="699.26" y2="720.04"/><line class="cls-11" x1="781.7" y1="725.16" x2="699.26" y2="725.16"/><line class="cls-11" x1="781.7" y1="730.28" x2="699.26" y2="730.28"/><line class="cls-11" x1="781.7" y1="735.4" x2="699.26" y2="735.4"/></g><path class="cls-12" d="M661.78,640.45l-94.7,94.7H783.37l-94.7-94.7A19,19,0,0,0,661.78,640.45Z"/><polygon class="cls-12" points="501.19 621.06 587.61 621.06 576.96 737.65 511.84 737.65 501.19 621.06"/><polygon class="cls-7" points="502.45 635.7 586.35 635.7 578.84 715.69 509.95 715.69 502.45 635.7"/><polygon class="cls-5" points="579.88 597.49 508.92 597.49 502.29 618.04 586.5 618.04 579.88 597.49"/><rect class="cls-5" x="496.63" y="613.44" width="95.53" height="9.21" rx="4.61" ry="4.61"/><path class="cls-5" d="M584.55,654.85a21.7,21.7,0,1,0-6,42.53c.69,0,1.38,0,2.05-.1Z"/><path class="cls-13" d="M540.41,551.06c3.33,2,5.47,5.22,5.47,8.79,0,6.17-2.59,9.51-11.32,11.18s-11.32,5-11.32,11.18a10.09,10.09,0,0,0,4.19,7.9"/><path class="cls-13" d="M550.61,552.1c3.33,2,5.47,5.22,5.47,8.79,0,6.17-2.59,9.51-11.32,11.18s-11.32,5-11.32,11.18a10.09,10.09,0,0,0,4.19,7.9"/><path class="cls-13" d="M563.72,552.1c3.33,2,5.47,5.22,5.47,8.79,0,6.17-2.59,9.51-11.32,11.18s-11.32,5-11.32,11.18a10.09,10.09,0,0,0,4.19,7.9"/></g></svg>