<svg xmlns="http://www.w3.org/2000/svg" viewBox="0 0 215.66 203.16"><defs><style>.cls-1{fill:#211915;}.cls-2,.cls-3{fill:#fff;}.cls-3{fill-rule:evenodd;}</style></defs><title>jopi_logo_ngo</title><g id="Layer_2" data-name="Layer 2"><g id="Layer_2-2" data-name="Layer 2"><path class="cls-1" d="M215.66,189.87a13.29,13.29,0,0,1-13.29,13.29H13.29A13.29,13.29,0,0,1,0,189.87V13.29A13.29,13.29,0,0,1,13.29,0H202.37a13.29,13.29,0,0,1,13.29,13.29Z"/><path class="cls-2" d="M54.29,94.34H92c6.72,0,14.74,5.67,14.74,18.34,0,14-8,18.94-14.74,18.94H54.29c-6.72,0-14.56-5-14.56-18.94C39.73,100,47.56,94.34,54.29,94.34ZM54.38,107c-2,0-5.51,2-5.51,5.67A6,6,0,0,0,54.19,119h37.6a5.92,5.92,0,0,0,5.6-6.28c0-3.64-3.64-5.67-5.6-5.67Z"/><path class="cls-2" d="M95.71,165.55a9.4,9.4,0,0,0,1.68-5.47c0-4.46-3.36-6.48-5.32-6.48H40.57V140.83h51.6c6.62,0,14.55,5.17,14.55,19.25,0,5.37-1.68,9.62-4.11,11.85Z"/><path class="cls-2" d="M135.42,141.56c-.85,0-6.26-.11-7.11-.11v29.93H115.15V97.09h20.7c12.63,0,18.68,9.34,18.68,21.23C154.53,133.71,145.4,141.56,135.42,141.56ZM131,130.21c8.6,0,11-1.06,11-11.89,0-5.94-1.38-10.61-6.69-10.61h-7v22.5Z"/><path class="cls-2" d="M174.17,171.39H160.9V97.09h13.27Z"/><path class="cls-3" d="M115.63,80.66a27.33,27.33,0,0,1,4.51-1.44,25.56,25.56,0,0,1,7.2-.72,26.3,26.3,0,0,1,4.06.49c4.81,1,9.05,2.93,11.49,7.3,8.68-9.84,18.87-9,29.58-4.81.15-7.42-3.95-17.89-11.2-26.53-12.42-14.77-28.93-21.48-47.95-23-.12-3,.08-6.52-3.92-6.51s-3.71,3.58-3.9,6.54C91.12,33,78,37.27,66.64,46.2S47.84,66.72,46.08,81.89a26,26,0,0,1,16-3.15c5.6.73,10.58,2.45,13.63,7.74a17.58,17.58,0,0,1,2.2-2.4A20.27,20.27,0,0,1,80.27,82a16.19,16.19,0,0,1,5.61-2.61,26.84,26.84,0,0,1,6.3-.79,25,25,0,0,1,5.87.56,28.08,28.08,0,0,1,5,1.73,9.22,9.22,0,0,1,2.19,1.57,21.58,21.58,0,0,1,2.54,2.43c.08.1.92,1.07.8,1.19a42,42,0,0,1,4.92-4.19A11.72,11.72,0,0,1,115.63,80.66Z"/></g></g></svg>