<svg xmlns="http://www.w3.org/2000/svg" viewBox="0 0 215.66 203.16"><defs><style>.cls-1{fill:#fff;}</style></defs><title>jopi_logo_bco</title><g id="Layer_2" data-name="Layer 2"><g id="Layer_2-2" data-name="Layer 2"><path class="cls-1" d="M91.79,107H54.38c-2,0-5.51,2-5.51,5.67A6,6,0,0,0,54.19,119h37.6a5.92,5.92,0,0,0,5.6-6.28C97.39,109,93.75,107,91.79,107Z"/><path class="cls-1" d="M135.32,107.7h-7v22.5H131c8.6,0,11-1.06,11-11.89C142,112.37,140.62,107.7,135.32,107.7Z"/><path class="cls-1" d="M202.37,0H13.29A13.29,13.29,0,0,0,0,13.29V189.87a13.29,13.29,0,0,0,13.29,13.29H202.37a13.29,13.29,0,0,0,13.29-13.29V13.29A13.29,13.29,0,0,0,202.37,0ZM102.61,171.93l-6.9-6.38a9.4,9.4,0,0,0,1.68-5.47c0-4.46-3.36-6.48-5.32-6.48H40.57V140.83h51.6c6.62,0,14.55,5.17,14.55,19.25C106.72,165.45,105,169.7,102.61,171.93ZM92,131.61H54.29c-6.72,0-14.56-5-14.56-18.94,0-12.66,7.84-18.34,14.56-18.34H92c6.72,0,14.74,5.67,14.74,18.34C106.72,126.65,98.69,131.61,92,131.61Zm43.44,10c-.85,0-6.26-.11-7.11-.11v29.93H115.15V97.09h20.7c12.63,0,18.68,9.34,18.68,21.23C154.53,133.71,145.4,141.56,135.42,141.56Zm7.47-55.28c-2.44-4.37-6.68-6.35-11.49-7.3a26.3,26.3,0,0,0-4.06-.49,25.56,25.56,0,0,0-7.2.72,27.32,27.32,0,0,0-4.51,1.44,11.72,11.72,0,0,0-2.13,1.2,42,42,0,0,0-4.92,4.19c.12-.12-.72-1.09-.8-1.19a21.58,21.58,0,0,0-2.54-2.43,9.22,9.22,0,0,0-2.19-1.57,28.09,28.09,0,0,0-5-1.73,25,25,0,0,0-5.87-.56,26.84,26.84,0,0,0-6.3.79A16.2,16.2,0,0,0,80.27,82a20.27,20.27,0,0,0-2.38,2.09,17.58,17.58,0,0,0-2.2,2.4c-3-5.29-8-7-13.63-7.74a26,26,0,0,0-16,3.15c1.76-15.17,9.09-26.65,20.56-35.69S91.12,33,105.51,32c.19-3-.09-6.53,3.9-6.54S113.21,29,113.33,32c19,1.49,35.53,8.19,47.95,23,7.25,8.63,11.34,19.11,11.2,26.53C161.76,77.33,151.58,76.44,142.9,86.28Zm31.28,85.11H160.9V97.09h13.27Z"/></g></g></svg>