<svg xmlns="http://www.w3.org/2000/svg" viewBox="0 0 172.36 145.22"><defs><style>.cls-1{fill:#00c289;}.cls-2{fill:#5fd6b1;}.cls-3{fill:#05a354;}.cls-4{fill:#000a8b;}.cls-5{fill:#fff;}.cls-6{fill:#c1272d;fill-rule:evenodd;}</style></defs><title>ventaja4</title><g id="Layer_2" data-name="Layer 2"><g id="Layer_2-2" data-name="Layer 2"><rect class="cls-1" x="1" y="35.88" width="170.36" height="72.57"/><circle class="cls-2" cx="86.18" cy="72.17" r="25.71"/><rect class="cls-3" x="1" y="35.88" width="35.95" height="72.57"/><rect class="cls-3" x="135.41" y="35.88" width="35.95" height="72.57" transform="translate(306.77 144.33) rotate(180)"/><path class="cls-4" d="M171.36,35.88v72.57H1V35.88H171.36m1-1H0v74.57H172.36V34.88Z"/><path class="cls-5" d="M69.83,65.23h-.06L66.52,67,66,65.05l4.09-2.19h2.16V81.58H69.83Z"/><path class="cls-5" d="M91.55,72c0,6.36-2.36,9.88-6.51,9.88-3.66,0-6.13-3.43-6.19-9.62s2.71-9.73,6.51-9.73S91.55,66.06,91.55,72Zm-10.16.29c0,4.87,1.5,7.63,3.8,7.63,2.59,0,3.83-3,3.83-7.8,0-4.61-1.18-7.63-3.8-7.63C83,64.51,81.39,67.21,81.39,72.31Z"/><path class="cls-5" d="M106.33,72c0,6.36-2.36,9.88-6.51,9.88-3.66,0-6.13-3.43-6.19-9.62s2.71-9.73,6.51-9.73S106.33,66.06,106.33,72Zm-10.16.29c0,4.87,1.5,7.63,3.8,7.63,2.59,0,3.83-3,3.83-7.8,0-4.61-1.18-7.63-3.8-7.63C97.78,64.51,96.17,67.21,96.17,72.31Z"/><path class="cls-6" d="M167,1.71,23.74,144.92a1,1,0,0,1-.71.29H11.1a1,1,0,0,1-.71-1.71L153.62.29a1,1,0,0,1,.71-.29h11.93A1,1,0,0,1,167,1.71Z"/></g></g></svg>