<svg xmlns="http://www.w3.org/2000/svg" viewBox="0 0 155.55 113.89"><defs><style>.cls-1{fill:#000a8b;}.cls-2{fill:#fff;fill-rule:evenodd;}.cls-3{fill:#fff6d7;}.cls-4{fill:#fff1c3;}.cls-5{fill:#ffedaf;}.cls-6{fill:#ffe89b;}.cls-7{fill:#fbcc34;}</style></defs><title>ventaja1</title><g id="Layer_2" data-name="Layer 2"><g id="Layer_2-2" data-name="Layer 2"><path class="cls-1" d="M108.67,21.12A45.88,45.88,0,1,1,62.78,67a45.88,45.88,0,0,1,45.88-45.88m0-1A46.88,46.88,0,1,0,155.55,67a46.94,46.94,0,0,0-46.88-46.88Z"/><polygon class="cls-2" points="1.84 110.53 1.84 91.35 15.01 91.35 15.01 74.18 5.64 74.18 5.64 56.01 0.5 56.01 0.5 36.84 1.84 36.84 1.84 18.67 4.03 18.67 4.03 0.5 95.89 0.5 95.89 19.67 93.7 19.67 93.7 37.84 92.35 37.84 92.35 55.01 97.49 55.01 97.49 73.18 106.86 73.18 106.86 92.35 93.7 92.35 93.7 110.53 1.84 110.53"/><path class="cls-1" d="M95.39,1V19.17H93.2V37.34H91.85V55.51H97V73.68h9.37V91.85H93.2V110H2.34V91.85H15.51V73.68H6.14V55.51H1V37.34H2.34V19.17H4.53V1H95.39m1-1H3.53V18.17H1.34V36.34H0V56.51H5.14V74.68h9.37V90.85H1.34V111H94.2V92.85h13.17V72.68H98V54.51H92.85V38.34H94.2V20.17h2.19V0Z"/><rect class="cls-3" x="2.35" y="91.85" width="18.17" height="18.17"/><rect class="cls-4" x="20.52" y="91.85" width="18.17" height="18.17"/><rect class="cls-5" x="38.69" y="91.85" width="18.17" height="18.17"/><rect class="cls-6" x="56.86" y="91.85" width="18.17" height="18.17"/><rect class="cls-7" x="75.03" y="91.85" width="18.17" height="18.17"/><rect class="cls-3" x="15.51" y="73.68" width="18.17" height="18.17"/><rect class="cls-4" x="33.68" y="73.68" width="18.17" height="18.17"/><rect class="cls-5" x="51.85" y="73.68" width="18.17" height="18.17"/><rect class="cls-6" x="70.02" y="73.68" width="18.17" height="18.17"/><rect class="cls-7" x="88.19" y="73.68" width="18.17" height="18.17"/><rect class="cls-3" x="6.14" y="55.51" width="18.17" height="18.17"/><rect class="cls-4" x="24.31" y="55.51" width="18.17" height="18.17"/><rect class="cls-5" x="42.48" y="55.51" width="18.17" height="18.17"/><rect class="cls-6" x="60.65" y="55.51" width="18.17" height="18.17"/><rect class="cls-7" x="78.82" y="55.51" width="18.17" height="18.17"/><rect class="cls-3" x="1" y="37.34" width="18.17" height="18.17"/><rect class="cls-4" x="19.17" y="37.34" width="18.17" height="18.17"/><rect class="cls-5" x="37.34" y="37.34" width="18.17" height="18.17"/><rect class="cls-6" x="55.51" y="37.34" width="18.17" height="18.17"/><rect class="cls-7" x="73.68" y="37.34" width="18.17" height="18.17"/><rect class="cls-3" x="2.35" y="19.17" width="18.17" height="18.17"/><rect class="cls-4" x="20.52" y="19.17" width="18.17" height="18.17"/><rect class="cls-5" x="38.69" y="19.17" width="18.17" height="18.17"/><rect class="cls-6" x="56.86" y="19.17" width="18.17" height="18.17"/><rect class="cls-7" x="75.03" y="19.17" width="18.17" height="18.17"/><rect class="cls-3" x="4.53" y="0.99" width="18.17" height="18.17"/><rect class="cls-4" x="22.7" y="0.99" width="18.17" height="18.17"/><rect class="cls-5" x="40.87" y="0.99" width="18.17" height="18.17"/><rect class="cls-6" x="59.04" y="0.99" width="18.17" height="18.17"/><rect class="cls-7" x="77.22" y="0.99" width="18.17" height="18.17"/><circle class="cls-7" cx="108.67" cy="67.01" r="45.99"/><path class="cls-5" d="M108.67,24a43,43,0,1,1-43,43,43,43,0,0,1,43-43m0-3a46,46,0,1,0,46,46,46,46,0,0,0-46-46Z"/><path class="cls-6" d="M96.4,59.21H86.58L86,63.11A11.23,11.23,0,0,1,87.67,63a11.59,11.59,0,0,1,6.66,1.83,7.21,7.21,0,0,1,3.08,6.35c0,4.72-4.05,8.88-10.87,8.88a16.12,16.12,0,0,1-7.05-1.44l1.05-4.44a14.57,14.57,0,0,0,5.73,1.25c2.45,0,5.06-1.17,5.06-3.86S89.27,67.4,84.2,67.4a21.93,21.93,0,0,0-3.43.23l1.68-13.29h14Z"/><path class="cls-6" d="M119.83,66.89c0,7.83-3.16,13.21-9.63,13.21s-9.43-5.88-9.47-13.05c0-7.33,3.12-13.13,9.67-13.13C117.18,53.91,119.83,60,119.83,66.89ZM106.7,67c0,5.81,1.36,8.57,3.66,8.57s3.55-2.88,3.55-8.65c0-5.61-1.21-8.57-3.59-8.57C108.14,58.39,106.66,61.16,106.7,67Z"/><path class="cls-6" d="M137.81,79.21a14.47,14.47,0,0,1-5.3.86c-6.16,0-10.09-3.74-10.09-9.74,0-5.58,3.82-10.13,10.91-10.13a13.7,13.7,0,0,1,4.52.74l-.94,4.4a8.06,8.06,0,0,0-3.31-.59,4.93,4.93,0,0,0-5.11,5.34,5,5,0,0,0,5.22,5.34,9.1,9.1,0,0,0,3.39-.58Z"/></g></g></svg>