<svg xmlns="http://www.w3.org/2000/svg" viewBox="0 0 72.38 118.85"><defs><style>.cls-1{fill:#a6abe7;}.cls-1,.cls-2{stroke:#000a8b;stroke-miterlimit:10;}.cls-2{fill:#c9ceff;}.cls-3{fill:#fff;}.cls-4{fill:#7fc1e2;}</style></defs><title>ventaja3</title><g id="Layer_2" data-name="Layer 2"><g id="Layer_2-2" data-name="Layer 2"><rect class="cls-1" x="11.19" y="10.46" width="60.68" height="107.88" rx="4" ry="4"/><circle class="cls-2" cx="41.54" cy="109.92" r="4.78"/><rect class="cls-3" x="14.41" y="14.89" width="54.24" height="86.25"/><polygon class="cls-4" points="14.41 61.99 68.66 39.15 68.66 36.95 14.41 59.79 14.41 61.99"/><polygon class="cls-4" points="14.41 76.8 14.41 101.13 68.66 101.13 68.66 53.96 14.41 76.8"/><polygon class="cls-4" points="68.66 32.18 68.66 14.89 14.41 14.89 14.41 55.02 68.66 32.18"/><path class="cls-3" d="M20.68,0c.21,4,.3,8,.38,11.94s.07,8,.12,11.94,0,8-.11,11.94l-.14,6c-.08,2-.13,4-.25,6-.11-2-.16-4-.25-6l-.14-6c-.08-4-.08-8-.11-11.94s0-8,.12-11.94S20.48,4,20.68,0Z"/><path class="cls-3" d="M41.37,11.94c-3.34,2.17-6.74,4.24-10.15,6.3s-6.86,4-10.28,6.07-6.91,4-10.4,5.87L5.29,33.05C3.53,34,1.78,34.93,0,35.83c1.67-1.09,3.37-2.13,5-3.2l5.1-3.11c3.41-2.06,6.86-4,10.28-6.07s6.91-4,10.4-5.87S37.82,13.75,41.37,11.94Z"/><path class="cls-3" d="M0,11.94c3.55,1.81,7,3.72,10.53,5.64s6.93,3.92,10.4,5.87,6.88,4,10.28,6.07l5.1,3.11c1.68,1.07,3.38,2.1,5,3.2-1.78-.9-3.53-1.85-5.29-2.77l-5.24-2.86c-3.49-1.92-6.93-3.92-10.4-5.87s-6.88-4-10.28-6.07S3.34,14.11,0,11.94Z"/></g></g></svg>